<?xml version="1.0" standalone="no"?>
<!DOCTYPE svg PUBLIC "-//W3C//DTD SVG 1.1//EN" "http://www.w3.org/Graphics/SVG/1.1/DTD/svg11.dtd" >
<svg xmlns="http://www.w3.org/2000/svg">
<metadata>
This is a custom SVG webfont generated by Font Squirrel.
Copyright   : Copyright c 2012 by Avraham Cornfeld All rights reserved
Designer    : Avraham Cornfeld
Foundry     : Avraham Cornfeld
Foundry URL : httpalefalefalefcoil
</metadata>
<defs>
<font id="almoni-dl-light" horiz-adv-x="0" >
<font-face units-per-em="2048" ascent="1638" descent="-410" />
<missing-glyph horiz-adv-x="602" />
<glyph unicode=" "  horiz-adv-x="602" />
<glyph unicode="&#x09;" horiz-adv-x="602" />
<glyph unicode="&#xa0;" horiz-adv-x="602" />
<glyph unicode="!" horiz-adv-x="560" d="M221 0h138v169h-138v-169zM250 742v478h79v-478l-25 -400h-29z" />
<glyph unicode="&#x22;" horiz-adv-x="592" d="M118 981l71 399h77l1 -99l-113 -300h-36zM294 981l69 399h77l2 -99l-112 -300h-36z" />
<glyph unicode="#" horiz-adv-x="1346" d="M130 271l13 44h272l123 328h-278l11 47h283l97 256h52l-97 -256h297l96 256h50l-97 -256h257l-12 -47h-263l-121 -328h269l-14 -44h-273l-102 -271h-49l99 271h-295l-101 -271h-49l101 271h-269zM467 315h294l123 328h-294z" />
<glyph unicode="$" horiz-adv-x="937" d="M86 317h73q4 -39 11 -70t26 -67t48 -61t79 -42.5t116 -20.5v559q-12 7 -52.5 29t-55.5 30.5t-49.5 29t-49.5 33t-41.5 33.5t-38 38.5t-25.5 40t-19.5 46t-5.5 49.5q0 126 87.5 200t249.5 78v160h41v-162q193 -1 275 -77t85 -217v-5h-59q-6 254 -301 252v-523 q5 -3 15.5 -8.5t16.5 -7.5q163 -80 240.5 -158.5t77.5 -178.5q0 -267 -350 -290v-155h-41v155q-164 6 -249.5 77.5t-103.5 232.5zM175 933q0 -26 8 -49.5t27 -46t35 -38.5t47.5 -36.5t47.5 -31t52.5 -31t46.5 -26.5v501q-53 -4 -92 -14t-82 -34t-66.5 -73t-23.5 -121z M480 56q79 4 137 26t88 55.5t43 70t13 75.5q0 90 -68.5 159t-212.5 147v-533z" />
<glyph unicode="%" horiz-adv-x="1162" d="M135 795v231q0 101 43.5 150t136.5 49q94 0 138 -49t44 -150v-231q0 -102 -44 -150t-138 -48q-93 0 -136.5 48t-43.5 150zM176 764q0 -57 38 -97t102 -40q67 0 104.5 38.5t36.5 98.5v292q1 58 -37 98.5t-103.5 40.5t-103 -38t-37.5 -101v-292zM244 0h40l630 1221h-39z M660 190v231q0 101 44 150t137 49q94 0 137.5 -49t43.5 -150v-231q0 -101 -43.5 -149.5t-137.5 -48.5q-93 0 -137 48.5t-44 149.5zM702 159q0 -57 37.5 -97t102.5 -40q66 0 103.5 38.5t36.5 98.5v292q1 57 -37 97.5t-103.5 40.5t-102.5 -37.5t-37 -100.5v-292z" />
<glyph unicode="&#x26;" horiz-adv-x="906" d="M111 265q13 110 97 192q16 16 38 35.5t38.5 32t45.5 35t40 31.5q-16 21 -55.5 70.5t-56.5 73.5q-62 95 -57.5 174t71 129t170.5 50q79 0 137.5 -37.5t81.5 -91.5t12 -118t-60 -113q-114 -109 -167 -151q65 -85 288 -363q11 31 16.5 72.5t5.5 87.5t-2 107h61 q16 -187 -46 -309l141 -172h-82q-36 47 -92 117q-106 -133 -314 -133q-177 0 -263 103q-61 68 -48 178zM173.5 247.5q-3.5 -81.5 48.5 -143.5q44 -57 143.5 -73t199 18.5t138.5 108.5q-150 190 -299 388q-110 -84 -158 -139q-69 -78 -72.5 -159.5zM272.5 890.5 q-3.5 -68.5 56.5 -155.5q5 -7 82 -111q116 91 159 144q36 40 42.5 89t-13 90t-66.5 68.5t-109 27.5q-61 0 -104.5 -42t-47 -110.5z" />
<glyph unicode="'" horiz-adv-x="420" d="M121 978l78 402h87l2 -99l-127 -303h-40z" />
<glyph unicode="(" horiz-adv-x="788" d="M343 615q0 136 1.5 230.5t7.5 188t15.5 154.5t26.5 118.5t40 92t55.5 62.5t74 42.5t96.5 21.5q35 0 78 -5v-33q-72 1 -121.5 -13t-87.5 -54t-60 -98.5t-35.5 -163.5t-18 -229.5t-4.5 -313.5t4.5 -314t18 -229t35.5 -163t60 -98.5t87.5 -52.5t121.5 -12v-34q-39 -8 -78 -4 q-48 6 -86 19t-69.5 32t-54.5 52t-40.5 69t-29 93.5t-19.5 116t-11.5 145.5t-5 173t-1.5 207z" />
<glyph unicode=")" horiz-adv-x="773" d="M17 -254q73 -1 122.5 12t87 52.5t59.5 98.5t36 163t18.5 229t4.5 314t-4.5 313.5t-18.5 229.5t-36 163.5t-59.5 98.5t-87 54t-122.5 13v33q44 5 78 5q56 -7 97 -21.5t74 -42.5t56 -62.5t39.5 -92t26.5 -118.5t15.5 -154.5t7.5 -188t2 -230.5q0 -121 -2 -207t-5.5 -173 t-11.5 -145.5t-19.5 -116t-28.5 -93.5t-40 -69t-54.5 -52t-69.5 -32t-87 -19q-39 -4 -78 4v34z" />
<glyph unicode="*" horiz-adv-x="932" d="M53 1355l21 68l370 -140l-16 394h70l-18 -391l371 137l22 -66l-380 -107l248 -308l-57 -43l-221 329l-215 -331l-58 43l240 311z" />
<glyph unicode="+" horiz-adv-x="1099" d="M87 578v64h436v436h63v-436h434v-64h-434v-433h-63v433h-436z" />
<glyph unicode="," horiz-adv-x="482" d="M133 -259l75 428h84l1 -105l-122 -323h-38z" />
<glyph unicode="-" horiz-adv-x="939" d="M123 581v65h676v-65h-676z" />
<glyph unicode="." horiz-adv-x="571" d="M237 0v169h138v-169h-138z" />
<glyph unicode="/" horiz-adv-x="647" d="M6 -300l584 1826h47l-584 -1826h-47z" />
<glyph unicode="0" horiz-adv-x="1011" d="M159 382v452q0 199 85.5 295t269.5 96t270.5 -96t86.5 -295v-452q0 -199 -86.5 -294t-270.5 -95t-269.5 95t-85.5 294zM239 321q0 -113 75 -190.5t202 -77.5q130 0 203 74.5t71 193.5v571q2 115 -72 194t-202 79q-130 0 -203.5 -74t-73.5 -199v-571z" />
<glyph unicode="1" horiz-adv-x="545" d="M133 994v47q45 -3 79.5 15t50.5 45t26 54t12 46l1 19h50v-1159h116v-61h-320v61h123v933h-138z" />
<glyph unicode="2" horiz-adv-x="939" d="M114 844q-13 199 89.5 288.5t294.5 89.5q86 0 154.5 -32.5t106.5 -91t48.5 -133t-18 -164t-93.5 -177.5q-60 -81 -173.5 -221.5t-195.5 -240.5l-83 -100h607v-62h-733q135 193 299.5 384.5t240.5 296.5q52 70 71.5 153t6 154t-71 120.5t-150.5 54.5q-183 9 -257.5 -78.5 t-66.5 -240.5h-76z" />
<glyph unicode="3" horiz-adv-x="944" d="M109 355l82 1q0 -141 88.5 -220.5t220.5 -79.5q131 0 210.5 76t79.5 219q0 141 -86 213t-222 72h-52v56h52q118 0 190.5 68.5t72.5 174.5q0 105 -72 166.5t-191 61.5q-117 0 -198.5 -65t-83.5 -196h-72q0 155 98 237.5t256 82.5q154 0 251 -78.5t97 -210.5 q0 -90 -56 -162t-159 -102q124 -23 191 -108t67 -203q0 -157 -97.5 -260t-266.5 -103q-193 0 -296.5 93t-103.5 267z" />
<glyph unicode="4" horiz-adv-x="939" d="M69 290l460 929h77l-421 -866h488v316h68v-316h130v-63h-130v-290h-68v290h-604z" />
<glyph unicode="5" horiz-adv-x="982" d="M168 344h85q0 -75 23.5 -132t64 -90t89 -49.5t104.5 -16.5q127 0 197.5 94.5t70.5 271.5q0 167 -52 263.5t-182 125.5q-57 11 -121 -5t-116 -65.5t-62 -120.5h-88v600h687v-58h-622v-456q24 56 72 95t106.5 54.5t120 14.5t117.5 -18q112 -34 168.5 -145.5t56.5 -275.5 q0 -200 -94 -320t-269 -120q-170 0 -260 89t-96 264z" />
<glyph unicode="6" horiz-adv-x="863" d="M78 301q-3 69 18 141.5t79 177.5l359 600h92l-393 -609q50 40 99 58t73.5 19t78.5 0q131 -4 218.5 -99.5t87.5 -256.5q0 -139 -98.5 -238.5t-249.5 -99.5q-154 0 -254.5 85t-109.5 222zM150 325q0 -121 85 -200t216 -74q113 5 192 86t79 200q0 133 -74.5 217t-208.5 84 q-135 0 -212 -92t-77 -221z" />
<glyph unicode="7" horiz-adv-x="894" d="M112 1159v61h709l-406 -1220h-79l386 1159h-610z" />
<glyph unicode="8" horiz-adv-x="988" d="M100 351q0 122 76 212t214 106q-117 16 -177.5 91.5t-60.5 172.5q0 130 91 211t255 81q166 0 257 -82t91 -210q0 -97 -60 -172.5t-178 -91.5q138 -16 214 -106t76 -212q0 -157 -107.5 -258.5t-292.5 -101.5t-291.5 101.5t-106.5 258.5zM172 351q0 -145 89.5 -228 t236.5 -83q148 0 235.5 83t87.5 228q0 143 -85.5 216.5t-237.5 73.5q-151 0 -238.5 -73.5t-87.5 -216.5zM227 935q0 -109 69.5 -178t201.5 -69t201.5 69t69.5 178t-69 174.5t-202 65.5t-202 -65.5t-69 -174.5z" />
<glyph unicode="9" horiz-adv-x="890" d="M89 888q0 140 98 238.5t252 98.5t253.5 -85t106.5 -221q4 -70 -17.5 -143t-78.5 -176q-31 -56 -121 -206t-163 -272l-74 -122h-87l384 615q-105 -92 -243 -78q-132 12 -221 105t-89 246zM163 883q0 -132 82 -214.5t197 -82.5q127 0 209.5 92t82.5 217q0 123 -82.5 201.5 t-212.5 74.5q-114 -6 -195 -88.5t-81 -199.5z" />
<glyph unicode=":" horiz-adv-x="670" d="M282 711v169h138v-169h-138zM284 0v169h138v-169h-138z" />
<glyph unicode=";" horiz-adv-x="564" d="M170 -215l75 428h84l1 -105l-122 -323h-38zM223 711v169h138v-169h-138z" />
<glyph unicode="&#x3c;" horiz-adv-x="1105" d="M53 585v54l939 502v-59l-892 -474l892 -463v-61z" />
<glyph unicode="=" horiz-adv-x="942" d="M130 415v66h676v-66h-676zM130 728v66h676v-66h-676z" />
<glyph unicode="&#x3e;" horiz-adv-x="1123" d="M98 84v61l892 463l-892 474v59l939 -502v-54z" />
<glyph unicode="?" horiz-adv-x="930" d="M154 848q-15 170 69 274.5t275 104.5q106 0 176.5 -49t90.5 -119t-4 -150t-91 -140q-65 -58 -104.5 -108.5t-56.5 -103t-21 -94t-2 -108.5h-51q-13 136 36 243.5t165 223.5q46 46 62 108t1 117.5t-69.5 94t-140.5 38.5q-135 0 -201.5 -77.5t-63.5 -254.5h-70zM392 0h138 v169h-138v-169z" />
<glyph unicode="@" horiz-adv-x="1761" d="M114 454q0 157 62.5 300t169 247t255 165.5t311.5 61.5q223 0 392.5 -80t265 -233.5t96.5 -361.5q0 -203 -101.5 -363.5t-270.5 -180.5q-137 -14 -213.5 54t-63.5 182q-41 -79 -96.5 -113.5t-141.5 -30.5q-60 4 -107.5 20t-83.5 50t-52.5 83.5t-9 124.5t41.5 170 q70 192 162 279t229 74q85 -11 124 -53t49 -119l35 137h54q-116 -436 -146 -539q-41 -142 22 -216t197 -60q98 11 169 91t104 187.5t33 222.5q-4 301 -188 469t-500 168q-206 0 -374 -98t-262.5 -266.5t-94.5 -371.5q0 -124 31.5 -231t98.5 -196t170.5 -145t247 -77.5 t327.5 4.5l4 -33q-241 -40 -419 -3.5t-295 139t-174.5 241t-57.5 301.5zM586.5 297.5q14.5 -80.5 66.5 -118.5t132 -38q115 0 168.5 67.5t106.5 263.5q57 217 28 299.5t-150 82.5q-113 0 -184.5 -79t-138.5 -271q-43 -126 -28.5 -206.5z" />
<glyph unicode="A" horiz-adv-x="1368" d="M60 0l579 1470h71l579 -1470h-87l-178 463h-701l-176 -463h-87zM350 532h649l-324 846z" />
<glyph unicode="B" horiz-adv-x="1227" d="M147 0v1470h504q175 0 276 -92t101 -271q0 -118 -70.5 -207.5t-191.5 -119.5q146 -18 233.5 -111t87.5 -255q0 -205 -113 -309.5t-332 -104.5h-495zM235 64h458q133 0 218.5 82t85.5 256q0 160 -87.5 252t-216.5 92h-458v-682zM235 815h423q125 0 202.5 86t77.5 209 q0 131 -70 211.5t-201 80.5h-432v-587z" />
<glyph unicode="C" horiz-adv-x="1330" d="M128 580q-4 68 -4 145t4 163q9 288 147 439t398 151q219 0 354 -95.5t152 -290.5h-88q-18 165 -127.5 247t-290.5 82q-221 0 -329.5 -127.5t-126.5 -383.5q-5 -131 -5 -167.5t5 -174.5q20 -519 456 -519q199 0 306.5 87.5t123.5 292.5h87q-16 -232 -147.5 -334 t-369.5 -102q-265 0 -399 144.5t-146 442.5z" />
<glyph unicode="D" horiz-adv-x="1384" d="M194 0v1470h488q267 0 399 -130t145 -423q2 -82 2 -173.5t-2 -192.5q-10 -283 -145 -417t-399 -134h-488zM275 62h407q224 0 334.5 110t125.5 358q5 82 5 181t-5 215q-10 252 -122.5 365.5t-337.5 113.5h-407v-1343z" />
<glyph unicode="E" horiz-adv-x="1231" d="M187 0v1470h900v-68h-813v-587h718v-69h-718v-680h813v-66h-900z" />
<glyph unicode="F" horiz-adv-x="1160" d="M190 0v1470h901v-68h-816v-587h722v-69h-722v-746h-85z" />
<glyph unicode="G" horiz-adv-x="1412" d="M161 580q-1 68 -1 145t1 163q9 288 146.5 440.5t397.5 152.5q233 0 365 -95t160 -316h-87q-49 355 -438 355q-220 0 -329 -129.5t-125 -385.5q-6 -131 -6 -167.5t6 -174.5q10 -284 117.5 -402.5t336.5 -118.5q461 0 461 575q0 23 -1 47h-404v68h490q0 -119 -2 -177 q-12 -296 -146 -432.5t-398 -136.5q-262 0 -397.5 145.5t-146.5 443.5z" />
<glyph unicode="H" horiz-adv-x="1393" d="M217 0v1470h81v-655h814v655h81v-1470h-81v752h-814v-752h-81z" />
<glyph unicode="I" horiz-adv-x="529" d="M217 0v1470h88v-1470h-88z" />
<glyph unicode="J" horiz-adv-x="635" d="M16 0l1 66h155q96 0 127.5 42.5t31.5 162.5v1199h82v-1173q0 -168 -50 -232.5t-195 -64.5h-152z" />
<glyph unicode="K" horiz-adv-x="1113" d="M230 0v1470h79v-1470h-79zM316 775l633 695h85l-633 -690l640 -780h-92z" />
<glyph unicode="L" horiz-adv-x="1085" d="M248 0v1470h90v-1403h737v-67h-827z" />
<glyph unicode="M" horiz-adv-x="1756" d="M242 0v1470h108l534 -1018l533 1018h110v-1470h-78v1389l-515 -1016h-101l-517 1016v-1389h-74z" />
<glyph unicode="N" horiz-adv-x="1488" d="M242 0v1470h96l829 -1371v1371h75v-1470h-92l-831 1380v-1380h-77z" />
<glyph unicode="O" horiz-adv-x="1384" d="M150 580q-3 68 -3.5 145t3.5 163q9 288 145.5 440.5t395.5 152.5q261 0 398 -152.5t146 -440.5q4 -86 3.5 -163t-3.5 -145q-11 -298 -146 -443.5t-398 -145.5q-261 0 -395.5 145.5t-145.5 443.5zM230 746q0 -22 3 -81t4 -97q22 -521 454 -521q435 0 457 521 q1 35 2.5 82.5t1.5 66.5v52q0 8 1 16q1 24 -1 48q-2 31 -4 77q-16 255 -126.5 385t-330.5 130q-218 0 -328 -130t-126 -385q-4 -57 -5.5 -99.5t-1.5 -64.5z" />
<glyph unicode="P" horiz-adv-x="1146" d="M190 0v1470h388q212 0 333.5 -101.5t121.5 -323.5q0 -409 -455 -409h-302v-636h-86zM276 702h283q40 0 72.5 2t74.5 10.5t74.5 23t65.5 41.5t54.5 63.5t35.5 91t14 122.5t-13.5 122t-34.5 89.5t-54.5 61.5t-65 39.5t-74.5 21.5t-75 10t-74 2h-283v-700z" />
<glyph unicode="Q" horiz-adv-x="1417" d="M154 580q-2 68 -2 145t2 163q9 288 146.5 440.5t397.5 152.5t397.5 -152.5t146.5 -440.5q2 -111 2 -187.5t-2 -120.5q-12 -297 -150 -441t-408 -144q187 -35 223 -44l299 -76l-20 -73q-326 81 -578 158q-230 74 -337 213t-117 407zM244 568q15 -259 126 -392t328 -133 q431 0 454 525q5 111 5.5 196.5t-5.5 145.5q-22 257 -128.5 386t-325.5 129q-220 0 -329 -129.5t-125 -385.5q-6 -84 -6 -170t6 -172z" />
<glyph unicode="R" horiz-adv-x="1135" d="M208 0v1470h403q208 0 319.5 -100t111.5 -325q0 -383 -396 -407l340 -638h-86l-332 636h-282v-636h-78zM286 692h282q64 0 113 6t106.5 28.5t94.5 59.5t62 106t25 164q0 68 -12.5 122t-32.5 89.5t-51.5 61.5t-61.5 39.5t-72 21.5t-73.5 10t-74.5 2h-305v-710z" />
<glyph unicode="S" horiz-adv-x="1243" d="M159 411l78 1q0 -95 34.5 -167.5t90 -112.5t118.5 -60t128 -20q173 0 261 78t88 230q0 40 -7 75t-23.5 66t-33 55.5t-47.5 50t-52.5 42.5t-63.5 41t-65.5 36.5t-72 37t-69 34.5t-64.5 34t-63.5 36.5t-54.5 36t-51 41.5t-39 43t-33 48.5t-18 53t-8 60.5q0 155 113.5 247 t307.5 92q149 0 251 -61q104 -61 148 -158q40 -87 40 -196q0 -12 -1 -25h-77q0 174 -93 280t-273 106q-140 0 -233 -80t-93 -199q0 -40 8.5 -73t31.5 -63.5t49 -54t76 -53.5t95.5 -53.5t124.5 -61.5q85 -40 145.5 -78.5t115.5 -91t83.5 -121t28.5 -152.5q0 -173 -118 -268.5 t-314 -95.5q-94 0 -173 23t-143 70.5t-99 131.5q-34 81 -34 189v6z" />
<glyph unicode="T" horiz-adv-x="1038" d="M17 1402v68h1009v-68h-441v-1402h-87v1402h-481z" />
<glyph unicode="U" horiz-adv-x="1438" d="M208 570v900h90v-910q0 -260 102.5 -387t323.5 -127t323.5 126t102.5 388v910h90v-900q0 -297 -126.5 -438.5t-389.5 -141.5t-389.5 142.5t-126.5 437.5z" />
<glyph unicode="V" horiz-adv-x="1252" d="M22 1470h87l514 -1402l513 1402h90l-559 -1470h-86z" />
<glyph unicode="W" horiz-adv-x="1867" d="M3 1470h83l400 -1392l398 1392h85l398 -1392l401 1392h82l-440 -1470h-85l-398 1404l-400 -1404h-83z" />
<glyph unicode="X" horiz-adv-x="1132" d="M55 0l474 761l-445 709h86l391 -655l393 655h88l-445 -709l474 -761h-90l-420 706l-418 -706h-88z" />
<glyph unicode="Y" horiz-adv-x="1024" d="M29 1470h89l394 -785l391 785h89l-440 -829v-641h-83v641z" />
<glyph unicode="Z" horiz-adv-x="1128" d="M109 0l805 1404h-737v66h858l-803 -1407h751v-63h-871h-3z" />
<glyph unicode="[" horiz-adv-x="670" d="M291 -299v1825h294v-40h-233v-1742h233v-43h-294z" />
<glyph unicode="\" horiz-adv-x="648" d="M-7 1526h47l584 -1826h-47z" />
<glyph unicode="]" horiz-adv-x="670" d="M53 -256h233v1742h-233v40h294v-1825h-294v43z" />
<glyph unicode="^" horiz-adv-x="1185" d="M61 798l501 728h54l503 -728h-60l-473 681l-464 -681h-61z" />
<glyph unicode="_" horiz-adv-x="1325" d="M15 0v66h1310v-66h-1310z" />
<glyph unicode="`" horiz-adv-x="420" d="M125 978l79 402h87l1 -99l-126 -303h-41z" />
<glyph unicode="a" horiz-adv-x="1087" d="M112 276q0 136 80.5 220.5t253.5 127.5q84 21 231.5 54.5t184.5 42.5q0 155 -70 226t-204 71q-59 0 -165.5 -5.5t-183.5 -9.5l-76 -5l-4 60q308 18 440 18q88 0 149.5 -21t97.5 -56t56.5 -95t27 -122.5t6.5 -154.5v-627h-74v222q-94 -238 -402 -238q-160 0 -254 78 t-94 214zM194 266q4 -104 73.5 -162.5t176.5 -65.5q19 -2 37 -2q73 0 139 26q82 32 133 89t80 126t29 137v255q-58 -12 -207 -48.5t-169 -40.5q-74 -20 -128 -46.5t-86.5 -55t-51.5 -64.5q-18 -38 -23 -72q-4 -25 -4 -53q0 -11 1 -23z" />
<glyph unicode="b" horiz-adv-x="1160" d="M187 0v1470h71v-587q89 203 353 203q200 0 310.5 -120t115.5 -332q2 -57 2 -108.5t-2 -98.5q-20 -435 -426 -435q-143 0 -228.5 55t-124.5 169v-216h-71zM260 436q0 -173 92.5 -284t258.5 -111q168 0 254.5 102.5t95.5 292.5q4 55 4 107.5t-4 103.5q-28 387 -350 387 q-83 0 -151.5 -36.5t-111 -94t-65.5 -124t-23 -132.5v-211z" />
<glyph unicode="c" horiz-adv-x="1092" d="M143 424q-2 50 -2 106.5t2 119.5q7 211 114.5 323.5t306.5 112.5q169 0 271.5 -79.5t114.5 -229.5h-77q-44 255 -309 255q-322 0 -344 -367q-3 -51 -3 -112t3 -133q8 -184 94.5 -280.5t249.5 -96.5q152 0 227.5 71t88.5 225h74q-8 -176 -109.5 -262t-280.5 -86 q-404 0 -421 433z" />
<glyph unicode="d" horiz-adv-x="1151" d="M130 427q-3 52 -3 104t3 103q13 215 121 333.5t306 118.5q266 0 353 -205v589h66v-1470h-66v218q-39 -113 -125.5 -169.5t-227.5 -56.5q-405 0 -427 435zM202 530q0 -4 1.5 -33.5t2.5 -60.5q15 -391 351 -391q169 0 257 100t94 291q3 76 3 129t-3 82 q-18 190 -101.5 288.5t-249.5 98.5q-329 0 -351 -387q-2 -46 -3 -58.5t-1 -32.5v-17v-9z" />
<glyph unicode="e" horiz-adv-x="1106" d="M145 424q-3 50 -3 106.5t3 119.5q13 212 118 324t303 112q397 0 397 -494q0 -39 -2 -81h-741q0 -61 2 -91q8 -184 95 -280.5t249 -96.5q155 0 229 67t87 220h75q-16 -339 -391 -339q-198 0 -301.5 107.5t-119.5 325.5zM218 573h673q0 459 -325 459q-164 0 -248.5 -89.5 t-95.5 -268.5q-1 -20 -2.5 -41.5t-1.5 -34.5v-25z" />
<glyph unicode="f" horiz-adv-x="611" d="M102 1005v62h133v106q0 163 39 230t137 67h101v-61h-104q-62 0 -81 -48.5t-19 -176.5v-117h199v-62h-199v-1005h-73v1005h-133z" />
<glyph unicode="g" horiz-adv-x="1146" d="M128 434q-2 58 -2 109.5t2 97.5q9 216 117 325.5t309 109.5q142 0 228 -56t125 -170v217h67v-1013q0 -115 -17 -185.5t-61.5 -112t-108 -56.5t-167.5 -15q-70 0 -140.5 3t-105.5 6l-36 2l5 59q119 -11 277 -11q61 0 98.5 2.5t73 13t55 29t34.5 50.5t20.5 77t5.5 110v174 q-81 -218 -353 -218q-199 0 -308.5 119.5t-117.5 332.5zM200 521.5q0 -13.5 0.5 -17.5t1 -29t2.5 -55q5 -188 92.5 -287.5t257.5 -99.5q327 0 349 387q3 49 3 101.5t-3 109.5q-20 394 -349 394q-169 0 -257 -102.5t-93 -291.5q-2 -32 -2.5 -59.5t-1 -32t-0.5 -18z" />
<glyph unicode="h" horiz-adv-x="1128" d="M166 0v1470h78v-622q42 106 129.5 167t214.5 61q201 0 304 -116t103 -340v-620h-75v641q0 185 -84 282t-248 97q-153 0 -248 -103.5t-96 -282.5v-634h-78z" />
<glyph unicode="i" horiz-adv-x="465" d="M201 0v1067h75v-1067h-75zM201 1308v162h75v-162h-75z" />
<glyph unicode="j" horiz-adv-x="519" d="M-13 -274l23 50q62 -27 107 -27q38 0 65 18q60 41 60 167v1133h72v-1107q0 -124 -42 -194.5t-114 -77.5q-10 -1 -20 -1q-66 0 -151 39zM242 1308v162h72v-162h-72z" />
<glyph unicode="k" horiz-adv-x="872" d="M163 0v1470h72v-1470h-72zM236 553l515 514h87l-523 -507l521 -560h-85z" />
<glyph unicode="l" horiz-adv-x="584" d="M187 297v1173h77v-1199q0 -121 28.5 -163t115.5 -42h142v-66h-139q-133 0 -178.5 64.5t-45.5 232.5z" />
<glyph unicode="m" horiz-adv-x="1773" d="M150 0v1067h72v-219q38 105 120 166.5t201 61.5q298 0 362 -287q33 133 119.5 210t219.5 77q188 0 284 -116t96 -340v-620h-72v641q0 185 -77 282t-231 97q-143 0 -232 -104t-90 -285v-11v-620h-71v641q0 185 -77 282t-231 97q-143 0 -232 -104t-89 -282v-634h-72z" />
<glyph unicode="n" horiz-adv-x="1151" d="M172 0v1067h72v-219q42 106 129.5 167t214.5 61q201 0 304 -116t103 -340v-620h-75v641q0 185 -84 282t-248 97q-153 0 -248 -103.5t-96 -282.5v-634h-72z" />
<glyph unicode="o" horiz-adv-x="1016" d="M114 424q-2 50 -2 106.5t2 119.5q7 212 107 324t291 112q190 0 290 -112.5t105 -323.5q3 -63 3 -119.5t-3 -106.5q-17 -433 -395 -433q-381 0 -398 433zM190 420q14 -377 322 -377q307 0 321 377q3 75 3 136t-3 109q-13 183 -90 275t-231 92q-156 0 -234 -93t-88 -274 q-3 -48 -3 -109t3 -136z" />
<glyph unicode="p" horiz-adv-x="1081" d="M130 -299v1366h71v-233q38 122 125 182t233 60q202 0 310.5 -109.5t116.5 -325.5q2 -46 2 -97.5t-2 -109.5q-7 -213 -117.5 -332.5t-309.5 -119.5q-271 0 -358 214v-495h-71zM205 521.5q0 -18.5 5 -101.5q22 -387 349 -387q325 0 351 387q2 34 3 52t1 36.5t-0.5 27.5 t-1.5 38.5t-2 56.5q-19 394 -351 394q-168 0 -255 -102t-94 -292q-5 -91 -5 -109.5z" />
<glyph unicode="q" horiz-adv-x="1135" d="M121 434q-4 58 -3.5 109.5t3.5 97.5q19 435 424 435q142 0 228 -56t125 -170v217h71v-1366h-71v481q-86 -200 -353 -200q-199 0 -308 119t-116 333zM192 508q0 -20 1 -36.5t4 -51.5q25 -387 348 -387q326 0 351 387q4 40 4 93t-4 118q-7 190 -94 292t-257 102 q-168 0 -254.5 -102t-93.5 -292q-1 -25 -2.5 -56.5t-2 -39t-0.5 -27.5z" />
<glyph unicode="r" horiz-adv-x="638" d="M168 0v1067h64v-247q27 107 101 176t170 74h17h32q28 -2 46 -3l17 -2l-2 -67q-66 5 -108 5q-89 0 -152.5 -55.5t-92 -133t-28.5 -162.5v-652h-64z" />
<glyph unicode="s" horiz-adv-x="910" d="M112 306h71q0 -68 25 -120.5t66.5 -81t88 -43t97.5 -14.5q131 0 193.5 55.5t62.5 165.5q0 25 -5 48t-10.5 41t-21 36.5t-25.5 30.5t-33.5 27.5t-36 23t-44 22.5t-44.5 20.5t-50 21.5q-163 74 -235.5 138.5t-72.5 160.5q0 114 87 181t237 67q170 0 256 -90q84 -87 84 -219 v-9h-73q0 124 -66 196t-205 72q-108 0 -175.5 -53.5t-67.5 -139.5q0 -83 61 -134.5t229 -124.5q151 -63 218 -132t67 -189q0 -125 -92 -197.5t-240 -72.5q-97 0 -174 31q-76 32 -126 104q-47 68 -46 166v12z" />
<glyph unicode="t" horiz-adv-x="607" d="M80 1018v49h137v270h72v-270h197v-49h-197v-747q0 -121 27.5 -163t115.5 -42h149v-66h-137q-134 0 -180.5 64.5t-46.5 232.5v721h-137z" />
<glyph unicode="u" horiz-adv-x="1099" d="M159 447v620h76v-640q0 -190 74 -285t238 -95q150 0 237.5 102t88.5 285v633h70v-1067h-70v209q-40 -102 -122.5 -160t-203.5 -58q-200 0 -294 115t-94 341z" />
<glyph unicode="v" horiz-adv-x="967" d="M25 1067h76l379 -989l381 989h76l-419 -1067h-75z" />
<glyph unicode="w" horiz-adv-x="1417" d="M-1 1067h75l296 -989l297 989h76l297 -989l296 989h76l-334 -1067h-76l-297 1003l-297 -1003h-74z" />
<glyph unicode="x" horiz-adv-x="793" d="M34 0l313 555l-289 512h75l261 -474l262 474h75l-289 -512l315 -555h-75l-288 516l-285 -516h-75z" />
<glyph unicode="y" horiz-adv-x="887" d="M58 1067h82l302 -786l317 786h76l-559 -1366h-75l212 497z" />
<glyph unicode="z" horiz-adv-x="856" d="M84 0l558 1009h-530v58h642l-557 -1008h530v-59h-643z" />
<glyph unicode="{" horiz-adv-x="764" d="M201 573v79q44 0 76 16t46 38.5t21.5 45.5t7.5 39v16v288q0 129 28 217t81.5 132.5t121.5 59.5t158 6v-31q-172 14 -241.5 -84.5t-69.5 -318.5v-247q0 -76 -42.5 -139t-134.5 -78q62 -9 104 -46.5t57.5 -80t15.5 -89.5v-248q0 -219 69.5 -317.5t241.5 -84.5v-31 q-90 -9 -158 6t-121.5 59.5t-81.5 132.5t-28 217v286v10q0 5 -2.5 21t-7 31t-16 33t-26.5 31t-41 22t-58 9z" />
<glyph unicode="|" horiz-adv-x="627" d="M309 -299v1826h47v-1826h-47z" />
<glyph unicode="}" horiz-adv-x="726" d="M-6 -254q172 -14 241.5 84.5t69.5 317.5v248q0 47 15.5 89.5t57.5 80t104 46.5q-92 15 -134.5 78t-42.5 139v247q0 220 -69.5 318.5t-241.5 84.5v31q90 9 158 -6t121.5 -59.5t81.5 -132.5t28 -217v-288v-9q0 -6 2.5 -22t7 -30.5t16 -32t26.5 -31t40.5 -22t58.5 -8.5v-79 q-118 0 -145 -107q-7 -28 -6 -50v-286q0 -129 -28 -217t-81.5 -132.5t-121.5 -59.5t-158 -6v31z" />
<glyph unicode="~" horiz-adv-x="652" d="M37 543v56q2 2 19.5 22t23 25t22 18.5t29 18.5t32 10t41.5 5q50 0 93 -23t76.5 -46t63.5 -23q22 0 41 4.5t31.5 10t27.5 17.5t21.5 18t20 21.5t18.5 20.5v-56q-4 -4 -17.5 -21t-19 -22.5t-19.5 -17.5t-25.5 -16.5t-30.5 -9t-41 -4.5q-38 0 -68.5 15.5t-48.5 34t-50.5 34 t-72.5 15.5q-34 0 -64 -13.5t-42 -23.5t-36 -39.5t-25 -30.5z" />
<glyph unicode="&#xa1;" horiz-adv-x="550" d="M204 1051v169h138v-169h-138zM231 0v483l21 400h40l20 -400v-483h-81z" />
<glyph unicode="&#xa2;" horiz-adv-x="1014" d="M133 424q-3 100 0 226q6 203 99 314.5t266 119.5v170h36v-168q153 -3 245 -82t103 -227h-71q-41 250 -277 255v-989q136 2 203 73t79 223h71q-8 -173 -99.5 -259.5t-253.5 -88.5v-137h-36v138q-351 14 -365 432zM205 420q5 -176 79.5 -272.5t213.5 -104.5v987 q-276 -15 -293 -365q-6 -101 0 -245z" />
<glyph unicode="&#xa3;" horiz-adv-x="757" d="M112 1005v62h123v106q0 163 36.5 230t127.5 67h94v-61h-96q-59 0 -76 -48.5t-17 -176.5v-117h185v-62h-185v-947h301v-59h-485v59h115v947h-123z" />
<glyph unicode="&#xa4;" horiz-adv-x="1094" d="M102 1102l73 71l127 -130q106 78 240 74.5t239 -85.5l119 123l69 -74l-123 -122q72 -103 72 -231t-74 -227l120 -119l-70 -72l-118 119q-100 -79 -230.5 -80.5t-236.5 73.5l-126 -125l-69 68l123 125q-85 107 -87 241.5t82 241.5zM215.5 734q0.5 -131 91.5 -228 q95 -92 227 -92.5t227 90.5q93 93 95 228.5t-92 231.5q-92 91 -228.5 89.5t-228.5 -94.5q-92 -94 -91.5 -225z" />
<glyph unicode="&#xa5;" horiz-adv-x="995" d="M29 1470h89l394 -788l391 788h89l-440 -836h285v-59h-290v-162h290v-59h-290v-354h-73v354h-299v59h299v162h-299v59h294z" />
<glyph unicode="&#xa6;" horiz-adv-x="362" d="M170 -300v690h47v-690h-47zM170 777v690h47v-690h-47z" />
<glyph unicode="&#xa7;" horiz-adv-x="872" d="M128 1206q-2 59 17 105.5t51.5 75.5t76 48t88 26.5t92.5 7.5q148 0 224 -65t73 -223h-68q2 36 -8 73t-36 73t-76 57.5t-118 20.5q-115 -1 -176 -59t-55 -133q2 -32 13 -62t23.5 -50.5t39.5 -47t44 -40.5t54 -43t55 -43q203 -165 268 -266q31 -49 31 -109t-26.5 -113 t-79.5 -93.5t-121 -54.5q10 -12 42 -45t45.5 -50t40 -47.5t39 -51t28 -47.5t21.5 -51.5t6 -49.5q-1 -124 -75.5 -186.5t-209.5 -62.5q-167 0 -248 85.5t-70 252.5h73q0 -50 10.5 -95t35 -89t73 -70t114.5 -26q112 0 167.5 54.5t57.5 112.5q0 37 -15 75t-52 84.5t-56.5 68 t-67.5 72.5q-20 20 -71 70.5t-87.5 88.5t-77 88t-62 96.5t-20.5 85.5q-3 105 36 163.5t124 115.5q-5 4 -26 23.5t-27 25.5l-25 25q-19 19 -25.5 27t-21.5 26t-21.5 28t-16 27.5t-13.5 30.5t-7.5 28.5t-3.5 31.5zM230 636q12 -51 103 -158.5t136 -146.5q67 15 114.5 52.5 t67 83t15 94.5t-36.5 88q-46 56 -125.5 132t-133.5 111q-68 -31 -113 -105.5t-27 -150.5z" />
<glyph unicode="&#xa8;" horiz-adv-x="656" d="M156 1443q0 26 17.5 43t41.5 17q25 0 42 -17t17 -43q0 -24 -17 -41t-42 -17q-24 0 -41.5 17t-17.5 41zM392 1443q0 26 17 43t42 17t41.5 -17t16.5 -43q0 -24 -16.5 -41t-41.5 -17t-42 17t-17 41z" />
<glyph unicode="&#xa9;" horiz-adv-x="1977" d="M71 737q0 208 102.5 384t278.5 279t383 103t383 -103t279 -279.5t103 -383.5t-103 -383t-279 -278t-383 -102q-208 0 -383.5 102t-278 277.5t-102.5 383.5zM138 735q0 -192 92 -355t252 -258.5t351 -95.5t350.5 95.5t251.5 258.5t92 355t-92 354.5t-251.5 258 t-350.5 95.5t-351 -95.5t-252 -258t-92 -354.5zM503 636q-4 78 0 179q5 167 91 255.5t243 88.5q134 0 215 -62.5t89 -179.5h-68q-16 100 -73 146.5t-163 46.5q-129 0 -193 -69.5t-74 -213.5q-4 -94 0 -196q13 -289 267 -289q120 0 176.5 52.5t66.5 175.5h65 q-7 -140 -86.5 -209t-221.5 -69q-321 0 -334 344z" />
<glyph unicode="&#xaa;" horiz-adv-x="717" d="M107 960q0 84 50 136.5t157 78.5q55 14 154 36.5t105 23.5q0 184 -171 184l-263 -11l-3 36q191 12 273 12q67 0 109.5 -18.5t64 -58t28.5 -85t7 -116.5v-389h-45v138q-60 -148 -250 -148q-99 0 -157.5 48.5t-58.5 132.5zM159 953q1 -63 44.5 -100t109.5 -41 q77 -6 138.5 30.5t91.5 91t30 111.5v158q-28 -6 -74 -17t-95 -23t-65 -15q-109 -29 -146.5 -76.5t-33.5 -118.5z" />
<glyph unicode="&#xab;" horiz-adv-x="591" d="M118 981l71 399h77l1 -99l-113 -300h-36zM294 981l69 399h77l2 -99l-112 -300h-36z" />
<glyph unicode="&#xac;" horiz-adv-x="1457" d="M67 -1v1115h610l-69 -56h-482v-1003h948v574l62 68v-698h-1069zM380 459l796 800l-209 208h454v-447l-204 205l-802 -803z" />
<glyph unicode="&#xad;" horiz-adv-x="939" d="M123 581v65h676v-65h-676z" />
<glyph unicode="&#xae;" horiz-adv-x="1678" d="M71 737q0 208 102.5 384t278.5 279t383 103t383 -103t279 -279.5t103 -383.5t-103 -383t-279 -278t-383 -102q-208 0 -383.5 102t-278 277.5t-102.5 383.5zM138 735q0 -192 92 -355t252 -258.5t351 -95.5t350.5 95.5t251.5 258.5t92 355t-92 354.5t-251.5 258 t-350.5 95.5t-351 -95.5t-252 -258t-92 -354.5zM632 313v834h210q256 0 256 -248q0 -92 -57.5 -154t-133.5 -76l168 -356h-73l-156 346h-155v-346h-59zM691 706h165h-5q28 0 57 8.5t60 28t51.5 61.5t20.5 100q0 47 -14.5 83.5t-36 56t-50.5 32t-53.5 16t-50.5 3.5h-144v-389 z" />
<glyph unicode="&#xb0;" horiz-adv-x="856" d="M105 1151q0 137 97 233.5t232.5 96.5t232.5 -97t97 -233t-97 -232.5t-232.5 -96.5t-232.5 96.5t-97 232.5zM166 1151q0 -113 77 -189t189.5 -76t190 76t77.5 189q0 114 -77.5 191.5t-190 77.5t-189.5 -77.5t-77 -191.5z" />
<glyph unicode="&#xb1;" horiz-adv-x="658" d="M29 612v62h276v256h54v-256h276v-62h-276v-275h-54v275h-276zM37 0v66h586v-66h-586z" />
<glyph unicode="&#xb2;" horiz-adv-x="569" d="M82 1256q-7 110 49 159.5t162 49.5q81 0 128.5 -47t44 -124.5t-63.5 -158.5q-33 -45 -95 -123t-108 -133l-46 -56h336v-34h-405q74 106 164 211t134 166q38 53 45.5 113.5t-25 105t-100.5 48.5q-101 5 -142.5 -43.5t-36.5 -133.5h-41z" />
<glyph unicode="&#xb3;" horiz-adv-x="545" d="M49 984l45 2q0 -80 49.5 -124t123 -44t117.5 42.5t44 121.5t-48 119t-124 40h-28v31h28q67 0 107.5 38t40.5 98q0 57 -40.5 91.5t-107.5 34.5q-64 0 -109.5 -36t-46.5 -109h-40q0 86 54.5 132t141.5 46t141 -43.5t54 -117.5q0 -50 -31.5 -90t-88.5 -57q69 -12 106.5 -60 t37.5 -113q0 -88 -54 -145t-148 -57q-109 0 -166.5 51.5t-57.5 148.5z" />
<glyph unicode="&#xb4;" horiz-adv-x="647" d="M140 1321l304 234h106l-365 -234h-45z" />
<glyph unicode="&#xb5;" horiz-adv-x="1106" d="M156 -299v1366h79v-640q0 -190 74 -285t238 -95q150 0 237.5 102t88.5 285v633h70v-1067h-70v209q-40 -102 -122.5 -160t-203.5 -58q-112 0 -195.5 42.5t-116.5 119.5v-452h-79z" />
<glyph unicode="&#xb6;" horiz-adv-x="1068" d="M69 1085.5q0 157.5 100 248.5t263 91h596v-65h-164v-1360h-73v1360h-232v-1360h-73v746h-54q-163 0 -263 91t-100 248.5z" />
<glyph unicode="&#xb7;" horiz-adv-x="670" d="M273 526v169h138v-169h-138z" />
<glyph unicode="&#xb8;" horiz-adv-x="16" d="M114 -59.5q2 19.5 17.5 36.5t40.5 23q-34 -39 -21 -68t63 -29h149q63 0 98 -44.5t35 -98.5t-36 -99t-97 -45h-186v41h171q37 0 62.5 21t31 50.5t0 59t-30.5 50.5t-60 21h-179q-19 0 -34 12.5t-20.5 31t-3.5 38z" />
<glyph unicode="&#xb9;" horiz-adv-x="435" d="M138 1342v26q72 -2 91 76l3 25h28v-646h65v-33h-179v33h69v519h-77z" />
<glyph unicode="&#xba;" horiz-adv-x="693" d="M100 1060q-3 64 0 141q5 132 67 201.5t180.5 69.5t181 -69.5t66.5 -201.5q3 -77 0 -141q-11 -270 -248 -270t-247 270zM147 1058q9 -236 200 -236t200 236q5 89 0 152q-13 229 -200 229t-200 -229q-4 -63 0 -152z" />
<glyph unicode="&#xbb;" horiz-adv-x="592" d="M118 981l71 399h77l1 -99l-113 -300h-36zM294 981l69 399h77l2 -99l-112 -300h-36z" />
<glyph unicode="&#xbc;" horiz-adv-x="1636" d="M245 1320v31q30 -1 52.5 10.5t33.5 29.5t17 35.5t7 30.5l1 13h33v-766h76v-40h-210v40h81v616h-91zM435 -299h49l611 1769h-50zM965 193l306 618h51l-280 -576h324v210h46v-210h86v-42h-86v-193h-46v193h-401z" />
<glyph unicode="&#xbd;" horiz-adv-x="1641" d="M245 1320v31q30 -1 52.5 10.5t33.5 29.5t17 35.5t7 30.5l1 13h33v-766h76v-40h-210v40h81v616h-91zM435 -299h49l611 1769h-50zM1009 558q-9 131 58.5 190t194.5 59q95 0 152 -56t53 -149t-74 -189q-41 -54 -115 -146.5t-128 -158.5l-55 -67h399v-41h-482 q89 128 197.5 254.5t157.5 195.5q46 63 55 135t-29.5 126t-120.5 57q-120 7 -169.5 -51t-43.5 -159h-50z" />
<glyph unicode="&#xbe;" horiz-adv-x="1641" d="M136 902l54 1q0 -95 58 -147t145 -52t139.5 50t52.5 144q0 93 -56.5 141t-146.5 48h-35v37h35q78 0 125.5 45t47.5 114t-47 110t-126 41q-77 0 -131 -42.5t-55 -129.5h-49q0 102 65.5 156.5t169.5 54.5q101 0 165.5 -52.5t64.5 -138.5q0 -58 -37.5 -105.5t-105.5 -67.5 q82 -15 126 -71.5t44 -134.5q0 -104 -64 -171.5t-175 -67.5q-127 0 -195.5 61.5t-68.5 176.5zM504 -299h49l611 1769h-50zM976 192l304 614h52l-279 -573h322v210h45v-210h86v-41h-86v-192h-45v192h-399z" />
<glyph unicode="&#xbf;" horiz-adv-x="880" d="M124.5 250.5q6.5 51.5 36 106t81.5 97.5q112 99 153.5 208.5t24.5 187.5h52q6 -81 -4 -144t-41 -120.5t-69 -103t-105 -112.5q-37 -36 -49 -95.5t3 -114.5t70 -95t140 -39q50 0 96.5 13t94.5 55t67 108q14 59 7 156h70q8 -82 -8 -149.5t-55 -119.5t-111 -81t-170 -29 q-72 0 -129.5 23t-92.5 60.5t-51.5 87t-10 101zM371 1049v169h138v-169h-138z" />
<glyph unicode="&#xc0;" horiz-adv-x="1353" d="M60 0l579 1470h71l579 -1470h-87l-178 463h-701l-176 -463h-87zM350 532h649l-324 846zM442 1818h105l304 -233h-45z" />
<glyph unicode="&#xc1;" horiz-adv-x="1368" d="M60 0l579 1470h71l579 -1470h-87l-178 463h-701l-176 -463h-87zM350 532h649l-324 846zM482 1585l303 233h106l-364 -233h-45z" />
<glyph unicode="&#xc2;" horiz-adv-x="1342" d="M60 0l579 1470h71l579 -1470h-87l-178 463h-701l-176 -463h-87zM350 532h649l-324 846zM443 1695l231 234h31l207 -234h-53l-169 212l-186 -212h-61z" />
<glyph unicode="&#xc3;" horiz-adv-x="1351" d="M60 0l579 1470h71l579 -1470h-87l-178 463h-701l-176 -463h-87zM350 532h649l-324 846zM439 1646v46q8 7 32.5 33t49 41t56.5 15q43 0 78.5 -24t64.5 -48t53 -24q33 0 55.5 10t50.5 37l26 26v-44q-1 -2 -25 -29t-46 -37t-55 -10q-31 0 -57 15t-41 32t-42 32t-62 15 t-61 -16t-48 -41t-29 -29z" />
<glyph unicode="&#xc4;" horiz-adv-x="1342" d="M60 0l579 1470h71l579 -1470h-87l-178 463h-701l-176 -463h-87zM350 532h649l-324 846zM496 1709q0 25 17 42.5t41 17.5q26 0 42.5 -17.5t16.5 -42.5q0 -24 -16.5 -41.5t-42.5 -17.5q-24 0 -41 17.5t-17 41.5zM731 1709q0 25 17 42.5t42 17.5t42 -17.5t17 -42.5 q0 -24 -17 -41.5t-42 -17.5t-42 17.5t-17 41.5z" />
<glyph unicode="&#xc5;" horiz-adv-x="1342" d="M60 0l579 1470h71l579 -1470h-87l-178 463h-701l-176 -463h-87zM350 532h649l-324 846zM477 1664q0 79 58 137.5t140 58.5q79 0 137.5 -58.5t58.5 -137.5q0 -71 -47 -126.5t-114 -67.5h-71q-70 12 -116 67.5t-46 126.5zM521 1664q0 -63 45.5 -108t108.5 -45t108 45 t45 108t-45 108t-108 45q-64 0 -109 -45t-45 -108z" />
<glyph unicode="&#xc6;" horiz-adv-x="1537" d="M21 0l653 1470h48v-35l-418 -961h418v-50h-439l-186 -424h-76zM721 0v1470h718v-68h-649v-587h574v-69h-574v-680h649v-66h-718z" />
<glyph unicode="&#xc7;" horiz-adv-x="1299" d="M128 580q-7 136 0 308q9 288 147 439t398 151q219 0 354 -95.5t152 -290.5h-88q-18 165 -127.5 247t-290.5 82q-221 0 -329.5 -127.5t-126.5 -383.5q-5 -131 -5 -167.5t5 -174.5q20 -519 456 -519q199 0 306.5 87.5t123.5 292.5h87q-16 -232 -147.5 -334t-369.5 -102 q-265 0 -399 144.5t-146 442.5zM501.5 -59.5q2.5 19.5 18 36.5t40.5 23q-34 -39 -21 -68t62 -29h150q62 0 97 -44.5t35 -98.5t-35.5 -99t-96.5 -45h-186v41h171q37 0 62 21t31 50.5t0 59t-30.5 50.5t-60.5 21h-178q-20 0 -34.5 12.5t-20.5 31t-3.5 38z" />
<glyph unicode="&#xc8;" horiz-adv-x="1238" d="M187 0v1470h900v-68h-813v-587h718v-69h-718v-680h813v-66h-900zM419 1818h105l304 -233h-45z" />
<glyph unicode="&#xc9;" horiz-adv-x="1224" d="M187 0v1470h900v-68h-813v-587h718v-69h-718v-680h813v-66h-900zM482 1585l303 233h106l-364 -233h-45z" />
<glyph unicode="&#xca;" horiz-adv-x="1231" d="M187 0v1470h900v-68h-813v-587h718v-69h-718v-680h813v-66h-900zM380 1695l231 234h31l207 -234h-53l-169 212l-187 -212h-60z" />
<glyph unicode="&#xcb;" horiz-adv-x="1250" d="M187 0v1470h900v-68h-813v-587h718v-69h-718v-680h813v-66h-900zM477 1709q0 25 17.5 42.5t41.5 17.5q25 0 42 -17.5t17 -42.5q0 -24 -17 -41.5t-42 -17.5q-24 0 -41.5 17.5t-17.5 41.5zM713 1709q0 25 16.5 42.5t42 17.5t42 -17.5t16.5 -42.5q0 -24 -16.5 -41.5 t-42 -17.5t-42 17.5t-16.5 41.5z" />
<glyph unicode="&#xcc;" horiz-adv-x="505" d="M21 1818h105l304 -233h-45zM217 0v1470h88v-1470h-88z" />
<glyph unicode="&#xcd;" horiz-adv-x="485" d="M82 1585l303 233h106l-365 -233h-44zM217 0v1470h88v-1470h-88z" />
<glyph unicode="&#xce;" horiz-adv-x="492" d="M33 1695l231 234h32l207 -234h-53l-169 212l-187 -212h-61zM217 0v1470h88v-1470h-88z" />
<glyph unicode="&#xcf;" horiz-adv-x="529" d="M80 1709q0 25 17.5 42.5t41.5 17.5q25 0 42 -17.5t17 -42.5q0 -24 -17 -41.5t-42 -17.5q-24 0 -41.5 17.5t-17.5 41.5zM217 0v1470h88v-1470h-88zM316 1709q0 25 17 42.5t42 17.5t42 -17.5t17 -42.5q0 -24 -17 -41.5t-42 -17.5t-42 17.5t-17 41.5z" />
<glyph unicode="&#xd0;" horiz-adv-x="1427" d="M13 715v66h277v689h448q245 0 367 -130t134 -423q4 -164 0 -366q-10 -284 -134 -417.5t-367 -133.5h-448v715h-277zM370 66h368q206 0 305 108t113 356q10 165 0 396q-9 252 -110 364t-308 112h-368v-621h319v-66h-319v-649z" />
<glyph unicode="&#xd1;" horiz-adv-x="1488" d="M242 0v1470h96l829 -1371v1371h75v-1470h-92l-831 1380v-1380h-77zM536 1680v46q8 7 32 33.5t49 41.5t57 15q42 0 78 -24t64.5 -48.5t52.5 -24.5q34 0 56.5 10.5t49.5 36.5l27 27v-45q-2 -1 -26 -28t-46 -37.5t-55 -10.5q-31 0 -57 15t-41 32t-42 32t-61 15 q-36 0 -62 -16t-47.5 -40.5t-28.5 -29.5z" />
<glyph unicode="&#xd2;" horiz-adv-x="1398" d="M150 580q-7 136 0 308q9 288 145.5 440.5t395.5 152.5q261 0 398 -152.5t146 -440.5q7 -172 0 -308q-11 -298 -146 -443.5t-398 -145.5q-261 0 -395.5 145.5t-145.5 443.5zM231 746q0 -22 2.5 -81t3.5 -97q22 -521 454 -521q435 0 457 521q1 35 2.5 82.5t1.5 66.5t0.5 52 t-1 64t-3.5 77q-16 255 -126.5 385t-330.5 130q-218 0 -328 -130t-126 -385q-4 -57 -5 -99.5t-1 -64.5zM513 1818h106l303 -233h-45z" />
<glyph unicode="&#xd3;" horiz-adv-x="1384" d="M150 580q-7 136 0 308q9 288 145.5 440.5t395.5 152.5q261 0 398 -152.5t146 -440.5q7 -172 0 -308q-11 -298 -146 -443.5t-398 -145.5q-261 0 -395.5 145.5t-145.5 443.5zM231 746q0 -22 2.5 -81t3.5 -97q22 -521 454 -521q435 0 457 521q1 35 2.5 82.5t1.5 66.5t0.5 52 t-1 64t-3.5 77q-16 255 -126.5 385t-330.5 130q-218 0 -328 -130t-126 -385q-4 -57 -5 -99.5t-1 -64.5zM554 1585l304 233h106l-365 -233h-45z" />
<glyph unicode="&#xd4;" horiz-adv-x="1384" d="M150 580q-7 136 0 308q9 288 145.5 440.5t395.5 152.5q261 0 398 -152.5t146 -440.5q7 -172 0 -308q-11 -298 -146 -443.5t-398 -145.5q-261 0 -395.5 145.5t-145.5 443.5zM231 746q0 -22 2.5 -81t3.5 -97q22 -521 454 -521q435 0 457 521q1 35 2.5 82.5t1.5 66.5t0.5 52 t-1 64t-3.5 77q-16 255 -126.5 385t-330.5 130q-218 0 -328 -130t-126 -385q-4 -57 -5 -99.5t-1 -64.5zM458 1695l231 234h31l207 -234h-53l-169 212l-186 -212h-61z" />
<glyph unicode="&#xd5;" horiz-adv-x="1389" d="M150 580q-7 136 0 308q9 288 145.5 440.5t395.5 152.5q261 0 398 -152.5t146 -440.5q7 -172 0 -308q-11 -298 -146 -443.5t-398 -145.5q-261 0 -395.5 145.5t-145.5 443.5zM231 746q0 -22 2.5 -81t3.5 -97q22 -521 454 -521q435 0 457 521q1 35 2.5 82.5t1.5 66.5t0.5 52 t-1 64t-3.5 77q-16 255 -126.5 385t-330.5 130q-218 0 -328 -130t-126 -385q-4 -57 -5 -99.5t-1 -64.5zM453 1680v46q8 7 32 33.5t49 41.5t57 15q43 0 78.5 -24t64 -48.5t53.5 -24.5q33 0 55.5 10.5t49.5 36.5l27 27v-45q-1 -1 -25.5 -28t-46 -37.5t-55.5 -10.5 q-31 0 -56.5 15t-40.5 32t-42 32t-62 15q-36 0 -61.5 -16t-47.5 -40.5t-29 -29.5z" />
<glyph unicode="&#xd6;" horiz-adv-x="1384" d="M150 580q-7 136 0 308q9 288 145.5 440.5t395.5 152.5q261 0 398 -152.5t146 -440.5q7 -172 0 -308q-11 -298 -146 -443.5t-398 -145.5q-261 0 -395.5 145.5t-145.5 443.5zM231 746q0 -22 2.5 -81t3.5 -97q22 -521 454 -521q435 0 457 521q1 35 2.5 82.5t1.5 66.5t0.5 52 t-1 64t-3.5 77q-16 255 -126.5 385t-330.5 130q-218 0 -328 -130t-126 -385q-4 -57 -5 -99.5t-1 -64.5zM552 1709q0 25 17 42.5t42 17.5t41.5 -17.5t16.5 -42.5q0 -24 -16.5 -41.5t-41.5 -17.5t-42 17.5t-17 41.5zM788 1709q0 25 16.5 42.5t42 17.5t42 -17.5t16.5 -42.5 q0 -24 -16.5 -41.5t-42 -17.5t-42 17.5t-16.5 41.5z" />
<glyph unicode="&#xd7;" horiz-adv-x="899" d="M143 350l263 263l-263 264l44 45l264 -264l263 264l45 -45l-263 -264l263 -263l-45 -45l-263 263l-264 -263z" />
<glyph unicode="&#xd8;" horiz-adv-x="1308" d="M112 580q-7 136 0 308q9 288 145.5 440.5t395.5 152.5q173 0 295 -69l65 147l38 -15l-69 -155q205 -146 215 -501q7 -172 0 -308q-11 -298 -145.5 -443.5t-398.5 -145.5q-157 0 -265 50l-72 -161l-37 16l73 164q-226 132 -240 520zM193 746q0 -22 2.5 -81t3.5 -97 q13 -320 182 -444l540 1227q-105 74 -268 74q-218 0 -328 -130t-126 -385q-3 -57 -4.5 -99.5t-1.5 -64.5zM414 102q97 -55 239 -55q435 0 457 521q1 35 2.5 82.5t1.5 66.5t1 52t-1 64t-4 77q-18 289 -157 415z" />
<glyph unicode="&#xd9;" horiz-adv-x="1447" d="M208 570v900h90v-910q0 -260 102.5 -387t323.5 -127t323.5 126t102.5 388v910h90v-900q0 -297 -126.5 -438.5t-389.5 -141.5t-389.5 142.5t-126.5 437.5zM442 1818h105l304 -233h-45z" />
<glyph unicode="&#xda;" horiz-adv-x="1434" d="M208 570v900h90v-910q0 -260 102.5 -387t323.5 -127t323.5 126t102.5 388v910h90v-900q0 -297 -126.5 -438.5t-389.5 -141.5t-389.5 142.5t-126.5 437.5zM588 1585l303 233h106l-365 -233h-44z" />
<glyph unicode="&#xdb;" horiz-adv-x="1438" d="M208 570v900h90v-910q0 -260 102.5 -387t323.5 -127t323.5 126t102.5 388v910h90v-900q0 -297 -126.5 -438.5t-389.5 -141.5t-389.5 142.5t-126.5 437.5zM483 1695l231 234h31l207 -234h-53l-169 212l-186 -212h-61z" />
<glyph unicode="&#xdc;" horiz-adv-x="1438" d="M208 570v900h90v-910q0 -260 102.5 -387t323.5 -127t323.5 126t102.5 388v910h90v-900q0 -297 -126.5 -438.5t-389.5 -141.5t-389.5 142.5t-126.5 437.5zM581 1709q0 25 17 42.5t41 17.5q26 0 42.5 -17.5t16.5 -42.5q0 -24 -16.5 -41.5t-42.5 -17.5q-24 0 -41 17.5 t-17 41.5zM816 1709q0 25 17 42.5t42 17.5t42 -17.5t17 -42.5q0 -24 -17 -41.5t-42 -17.5t-42 17.5t-17 41.5z" />
<glyph unicode="&#xdd;" horiz-adv-x="948" d="M-7 1470h90l393 -785l391 785h90l-441 -829v-641h-82v641zM388 1585l303 233h106l-365 -233h-44z" />
<glyph unicode="&#xde;" horiz-adv-x="1038" d="M130 -299v1770h80v-497q100 150 320 150q191 0 293.5 -133.5t102.5 -383.5q0 -513 -396 -513q-223 0 -320 145v-538h-80zM210 488q0 -156 85.5 -249t234.5 -93q321 0 321 466q0 208 -83.5 333t-237.5 125q-153 0 -236.5 -89t-83.5 -250v-243z" />
<glyph unicode="&#xdf;" horiz-adv-x="1155" d="M154 0v1076q0 394 355 394q172 0 272.5 -88t100.5 -242q0 -62 -31 -113t-74.5 -83t-87.5 -58.5t-75 -54t-31 -56.5q0 -30 37 -60.5t91.5 -61t111.5 -65t103.5 -85.5t60.5 -109q10 -56 12.5 -111t-20.5 -106.5t-62.5 -90.5t-113 -62.5t-171.5 -23.5h-80v66h47q74 0 131 12 t92.5 33.5t58.5 50t31 63t7 69.5t-12 73q-12 49 -57.5 94.5t-101 79.5t-109 67t-89.5 70t-36 75q0 47 21.5 83t53 56.5t68 45.5t68.5 48.5t53 66t21 98.5q0 114 -78 185.5t-214 72.5q-116 2 -193 -78.5t-77 -231.5v-1099h-83z" />
<glyph unicode="&#xe0;" horiz-adv-x="1097" d="M112 276q0 136 80.5 220.5t253.5 127.5q84 21 231.5 54.5t184.5 42.5q0 155 -70 226t-204 71q-59 0 -165.5 -5.5t-183.5 -9.5l-76 -5l-4 60q308 18 440 18q88 0 149.5 -21t97.5 -56t56.5 -95t27 -122.5t6.5 -154.5v-627h-74v222q-94 -238 -402 -238q-160 0 -254 78 t-94 214zM194 266q4 -104 73.5 -162.5t176.5 -65.5q94 -8 176 24t133 89t80 126t29 137v255q-58 -12 -207 -48.5t-169 -40.5q-74 -20 -128 -46.5t-86.5 -55t-51 -65t-23.5 -71t-3 -76.5zM320 1555h106l303 -234h-45z" />
<glyph unicode="&#xe1;" horiz-adv-x="1106" d="M112 276q0 136 80.5 220.5t253.5 127.5q84 21 231.5 54.5t184.5 42.5q0 155 -70 226t-204 71q-59 0 -165.5 -5.5t-183.5 -9.5l-76 -5l-4 60q308 18 440 18q88 0 149.5 -21t97.5 -56t56.5 -95t27 -122.5t6.5 -154.5v-627h-74v222q-94 -238 -402 -238q-160 0 -254 78 t-94 214zM194 266q4 -104 73.5 -162.5t176.5 -65.5q94 -8 176 24t133 89t80 126t29 137v255q-58 -12 -207 -48.5t-169 -40.5q-74 -20 -128 -46.5t-86.5 -55t-51 -65t-23.5 -71t-3 -76.5zM388 1321l303 234h106l-365 -234h-44z" />
<glyph unicode="&#xe2;" horiz-adv-x="1087" d="M112 276q0 136 80.5 220.5t253.5 127.5q84 21 231.5 54.5t184.5 42.5q0 155 -70 226t-204 71q-59 0 -165.5 -5.5t-183.5 -9.5l-76 -5l-4 60q308 18 440 18q88 0 149.5 -21t97.5 -56t56.5 -95t27 -122.5t6.5 -154.5v-627h-74v222q-94 -238 -402 -238q-160 0 -254 78 t-94 214zM194 266q4 -104 73.5 -162.5t176.5 -65.5q94 -8 176 24t133 89t80 126t29 137v255q-58 -12 -207 -48.5t-169 -40.5q-74 -20 -128 -46.5t-86.5 -55t-51 -65t-23.5 -71t-3 -76.5zM309 1429l231 234h32l207 -234h-53l-169 212l-187 -212h-61z" />
<glyph unicode="&#xe3;" horiz-adv-x="1106" d="M112 276q0 136 80.5 220.5t253.5 127.5q84 21 231.5 54.5t184.5 42.5q0 155 -70 226t-204 71q-59 0 -165.5 -5.5t-183.5 -9.5l-76 -5l-4 60q308 18 440 18q88 0 149.5 -21t97.5 -56t56.5 -95t27 -122.5t6.5 -154.5v-627h-74v222q-94 -238 -402 -238q-160 0 -254 78 t-94 214zM194 266q4 -104 73.5 -162.5t176.5 -65.5q94 -8 176 24t133 89t80 126t29 137v255q-58 -12 -207 -48.5t-169 -40.5q-74 -20 -128 -46.5t-86.5 -55t-51 -65t-23.5 -71t-3 -76.5zM354 1320v46q8 7 32.5 33.5t49 41.5t56.5 15q43 0 78.5 -24t64.5 -48.5t53 -24.5 q33 0 55.5 10.5t50.5 36.5l26 27v-45q-1 -1 -25.5 -28t-46 -37.5t-55.5 -10.5q-31 0 -56.5 15t-40.5 32.5t-42 32t-62 14.5t-61 -16t-48 -40.5t-29 -29.5z" />
<glyph unicode="&#xe4;" horiz-adv-x="1087" d="M112 276q0 136 80.5 220.5t253.5 127.5q84 21 231.5 54.5t184.5 42.5q0 155 -70 226t-204 71q-59 0 -165.5 -5.5t-183.5 -9.5l-76 -5l-4 60q308 18 440 18q88 0 149.5 -21t97.5 -56t56.5 -95t27 -122.5t6.5 -154.5v-627h-74v222q-94 -238 -402 -238q-160 0 -254 78 t-94 214zM194 266q4 -104 73.5 -162.5t176.5 -65.5q94 -8 176 24t133 89t80 126t29 137v255q-58 -12 -207 -48.5t-169 -40.5q-74 -20 -128 -46.5t-86.5 -55t-51 -65t-23.5 -71t-3 -76.5zM373 1343q0 25 17 42.5t41 17.5q26 0 42.5 -17.5t16.5 -42.5q0 -24 -16.5 -41 t-42.5 -17q-24 0 -41 17t-17 41zM608 1343q0 25 17 42.5t42 17.5t42 -17.5t17 -42.5q0 -24 -17 -41t-42 -17t-42 17t-17 41z" />
<glyph unicode="&#xe5;" horiz-adv-x="1101" d="M112 276q0 136 80.5 220.5t253.5 127.5q84 21 231.5 54.5t184.5 42.5q0 155 -70 226t-204 71q-59 0 -165.5 -5.5t-183.5 -9.5l-76 -5l-4 60q308 18 440 18q88 0 149.5 -21t97.5 -56t56.5 -95t27 -122.5t6.5 -154.5v-627h-74v222q-94 -238 -402 -238q-160 0 -254 78 t-94 214zM194 266q4 -104 73.5 -162.5t176.5 -65.5q94 -8 176 24t133 89t80 126t29 137v255q-58 -12 -207 -48.5t-169 -40.5q-74 -20 -128 -46.5t-86.5 -55t-51 -65t-23.5 -71t-3 -76.5zM388 1382.5q0 66.5 47.5 114t114 47.5t114.5 -47.5t48 -114t-48 -114.5t-114.5 -48 t-114 48t-47.5 114.5zM424 1382q0 -53 36.5 -88.5t86.5 -35.5q53 0 90.5 36.5t37.5 87.5q0 53 -37.5 89.5t-90.5 36.5q-51 0 -87 -36.5t-36 -89.5z" />
<glyph unicode="&#xe6;" horiz-adv-x="1742" d="M106 276q0 137 75 221t239 127q79 21 216.5 54.5t174.5 42.5q0 155 -65.5 226t-192.5 71q-55 0 -154.5 -5.5t-171.5 -9.5l-73 -5l-4 60q289 18 414 18q132 0 199 -52.5t93 -158.5q92 227 356 227q404 0 372 -578h-702q0 -62 2 -92q7 -184 91 -281.5t237 -97.5 q145 0 215.5 67.5t82.5 221.5h70q-16 -341 -368 -341q-128 0 -232.5 69t-138.5 196q-90 -272 -409 -272q-149 0 -237.5 78t-88.5 214zM183 266q3 -104 68.5 -162.5t165.5 -65.5q90 -8 166 22.5t125 85t76 122t27 134.5v267q-54 -12 -192.5 -48t-160.5 -41 q-87 -25 -144.5 -58t-85.5 -75.5t-37.5 -84.5t-7.5 -96zM880 576h638q0 462 -306 462q-307 0 -328 -360q-1 -20 -2 -42t-1.5 -34.5t-0.5 -25.5z" />
<glyph unicode="&#xe7;" horiz-adv-x="1121" d="M143 424q-4 100 0 226q7 211 114.5 323.5t306.5 112.5q169 0 271.5 -79.5t114.5 -229.5h-77q-44 255 -309 255q-322 0 -344 -367q-6 -101 0 -245q8 -184 94.5 -280.5t249.5 -96.5q152 0 227.5 71t88.5 225h74q-8 -176 -109.5 -262t-280.5 -86q-404 0 -421 433z M394.5 -59.5q2.5 19.5 18 36.5t40.5 23q-34 -39 -21 -68t62 -29h150q62 0 97 -44.5t35 -98.5t-35.5 -99t-96.5 -45h-186v41h171q37 0 62 21t31 50.5t0 59t-30.5 50.5t-60.5 21h-178q-19 0 -34 12.5t-21 31t-3.5 38z" />
<glyph unicode="&#xe8;" horiz-adv-x="1110" d="M145 424q-7 100 0 226q13 212 118 324t303 112q429 0 395 -575h-741q0 -61 2 -91q8 -184 95 -280.5t249 -96.5q155 0 229 67t87 220h75q-16 -339 -391 -339q-198 0 -301.5 107.5t-119.5 325.5zM217 573h674q0 459 -325 459q-164 0 -248.5 -89.5t-95.5 -268.5 q-1 -20 -2.5 -41.5t-2 -34.5t-0.5 -25zM371 1428h106l304 -233h-45z" />
<glyph unicode="&#xe9;" horiz-adv-x="1123" d="M145 424q-7 100 0 226q13 212 118 324t303 112q429 0 395 -575h-741q0 -61 2 -91q8 -184 95 -280.5t249 -96.5q155 0 229 67t87 220h75q-16 -339 -391 -339q-198 0 -301.5 107.5t-119.5 325.5zM217 573h674q0 459 -325 459q-164 0 -248.5 -89.5t-95.5 -268.5 q-1 -20 -2.5 -41.5t-2 -34.5t-0.5 -25zM423 1170l304 233h106l-365 -233h-45z" />
<glyph unicode="&#xea;" horiz-adv-x="1106" d="M145 424q-7 100 0 226q13 212 118 324t303 112q429 0 395 -575h-741q0 -61 2 -91q8 -184 95 -280.5t249 -96.5q155 0 229 67t87 220h75q-16 -339 -391 -339q-198 0 -301.5 107.5t-119.5 325.5zM217 573h674q0 459 -325 459q-164 0 -248.5 -89.5t-95.5 -268.5 q-1 -20 -2.5 -41.5t-2 -34.5t-0.5 -25zM346 1236l231 234h31l207 -234h-53l-169 212l-186 -212h-61z" />
<glyph unicode="&#xeb;" horiz-adv-x="1106" d="M145 424q-7 100 0 226q13 212 118 324t303 112q429 0 395 -575h-741q0 -61 2 -91q8 -184 95 -280.5t249 -96.5q155 0 229 67t87 220h75q-16 -339 -391 -339q-198 0 -301.5 107.5t-119.5 325.5zM217 573h674q0 459 -325 459q-164 0 -248.5 -89.5t-95.5 -268.5 q-1 -20 -2.5 -41.5t-2 -34.5t-0.5 -25zM408 1339q0 25 17.5 42t41.5 17q25 0 42 -17t17 -42t-17 -42t-42 -17q-24 0 -41.5 17t-17.5 42zM644 1339q0 25 16.5 42t42 17t42 -17t16.5 -42t-16.5 -42t-42 -17t-42 17t-16.5 42z" />
<glyph unicode="&#xec;" horiz-adv-x="465" d="M13 1440h105l304 -234h-45zM194 0v1074h88v-1074h-88z" />
<glyph unicode="&#xed;" horiz-adv-x="465" d="M30 1213l304 234h105l-364 -234h-45zM194 0v1074h88v-1074h-88z" />
<glyph unicode="&#xee;" horiz-adv-x="465" d="M-2 1295l231 233h31l207 -233h-53l-169 211l-186 -211h-61zM194 0v1074h88v-1074h-88z" />
<glyph unicode="&#xef;" horiz-adv-x="465" d="M67 1341q0 25 17 42.5t41 17.5q26 0 42.5 -17.5t16.5 -42.5q0 -24 -16.5 -41.5t-42.5 -17.5q-24 0 -41 17.5t-17 41.5zM194 0v1074h88v-1074h-88zM302 1341q0 25 17 42.5t42 17.5t42 -17.5t17 -42.5q0 -24 -17 -41.5t-42 -17.5t-42 17.5t-17 41.5z" />
<glyph unicode="&#xf0;" horiz-adv-x="890" d="M89 344q0 153 89 246t221 105q138 13 243 -79l-210 336l-171 -118l-28 39l174 118l-136 213l69 33l125 -207l159 111l27 -39l-166 -112l218 -359q57 -102 78.5 -175t17.5 -143q-7 -136 -106.5 -221t-253.5 -85t-252 99t-98 238zM163 348q0 -117 81 -199t195 -88 q130 -5 212.5 74t82.5 202q0 124 -82.5 216t-209.5 92q-115 0 -197 -82t-82 -215z" />
<glyph unicode="&#xf1;" horiz-adv-x="1151" d="M172 0v1067h72v-219q42 106 129.5 167t214.5 61q201 0 304 -116t103 -340v-620h-75v641q0 185 -84 282t-248 97q-153 0 -248 -103.5t-96 -282.5v-634h-72zM383 1312v46q8 7 32 33.5t49 41.5t57 15q43 0 78.5 -24t64 -48.5t52.5 -24.5q34 0 56.5 10.5t48.5 36.5l28 27v-45 q-1 -1 -25.5 -28t-46 -37.5t-55.5 -10.5q-31 0 -57 15t-40.5 32t-42 32t-61.5 15q-36 0 -61.5 -16t-47.5 -40.5t-29 -29.5z" />
<glyph unicode="&#xf2;" horiz-adv-x="1043" d="M121 424q-4 100 0 226q7 212 107 324t291 112q189 0 289 -112.5t106 -323.5q7 -126 0 -226q-17 -433 -395 -433q-381 0 -398 433zM197 420q13 -377 322 -377q307 0 321 377q6 150 0 245q-13 183 -90 275t-231 92q-156 0 -234 -93t-88 -274q-6 -96 0 -245zM317 1485h106 l304 -234h-45z" />
<glyph unicode="&#xf3;" horiz-adv-x="1043" d="M121 424q-4 100 0 226q7 212 107 324t291 112q189 0 289 -112.5t106 -323.5q7 -126 0 -226q-17 -433 -395 -433q-381 0 -398 433zM197 420q13 -377 322 -377q307 0 321 377q6 150 0 245q-13 183 -90 275t-231 92q-156 0 -234 -93t-88 -274q-6 -96 0 -245zM358 1268 l303 234h106l-365 -234h-44z" />
<glyph unicode="&#xf4;" horiz-adv-x="1052" d="M121 424q-4 100 0 226q7 212 107 324t291 112q189 0 289 -112.5t106 -323.5q7 -126 0 -226q-17 -433 -395 -433q-381 0 -398 433zM197 420q13 -377 322 -377q307 0 321 377q6 150 0 245q-13 183 -90 275t-231 92q-156 0 -234 -93t-88 -274q-6 -96 0 -245zM283 1308 l231 233h31l207 -233h-53l-169 211l-186 -211h-61z" />
<glyph unicode="&#xf5;" horiz-adv-x="1047" d="M121 424q-4 100 0 226q7 212 107 324t291 112q189 0 289 -112.5t106 -323.5q7 -126 0 -226q-17 -433 -395 -433q-381 0 -398 433zM197 420q13 -377 322 -377q307 0 321 377q6 150 0 245q-13 183 -90 275t-231 92q-156 0 -234 -93t-88 -274q-6 -96 0 -245zM310 1320v46 q9 7 33 33.5t48.5 41.5t56.5 15q43 0 78.5 -24t64.5 -48.5t53 -24.5q33 0 55.5 10.5t50.5 36.5l26 27v-45q-1 -1 -25 -28t-46 -37.5t-55 -10.5q-31 0 -57 15t-41 32.5t-42 32t-62 14.5t-61 -16t-48 -40.5t-29 -29.5z" />
<glyph unicode="&#xf6;" horiz-adv-x="1038" d="M121 424q-4 100 0 226q7 212 107 324t291 112q189 0 289 -112.5t106 -323.5q7 -126 0 -226q-17 -433 -395 -433q-381 0 -398 433zM197 420q13 -377 322 -377q307 0 321 377q6 150 0 245q-13 183 -90 275t-231 92q-156 0 -234 -93t-88 -274q-6 -96 0 -245zM370 1349 q0 25 17.5 42.5t41.5 17.5q25 0 42 -17.5t17 -42.5q0 -24 -17 -41.5t-42 -17.5q-24 0 -41.5 17.5t-17.5 41.5zM606 1349q0 25 16.5 42.5t42 17.5t42 -17.5t16.5 -42.5q0 -24 -16.5 -41.5t-42 -17.5t-42 17.5t-16.5 41.5z" />
<glyph unicode="&#xf7;" horiz-adv-x="737" d="M20 581v65h676v-65h-676zM268 892v169h138v-169h-138zM270 166v169h138v-169h-138z" />
<glyph unicode="&#xf8;" horiz-adv-x="975" d="M83 424q-4 100 0 226q7 212 107 324t291 112q123 0 209 -49l60 136l33 -11l-63 -143q149 -108 156 -369q7 -126 0 -226q-17 -433 -395 -433q-116 0 -198 39l-66 -150l-32 14l67 153q-159 100 -169 377zM159 420q9 -223 119 -314l387 875q-72 51 -184 51q-156 0 -234 -93 t-88 -274q-6 -96 0 -245zM307 85q68 -42 174 -42q307 0 321 377q6 150 0 245q-14 204 -109 293z" />
<glyph unicode="&#xf9;" horiz-adv-x="1106" d="M159 447v620h76v-640q0 -190 74 -285t238 -95q150 0 237.5 102t88.5 285v633h70v-1067h-70v209q-40 -102 -122.5 -160t-203.5 -58q-200 0 -294 115t-94 341zM317 1466h106l304 -233h-45z" />
<glyph unicode="&#xfa;" horiz-adv-x="1106" d="M159 447v620h76v-640q0 -190 74 -285t238 -95q150 0 237.5 102t88.5 285v633h70v-1067h-70v209q-40 -102 -122.5 -160t-203.5 -58q-200 0 -294 115t-94 341zM419 1228l303 234h106l-365 -234h-44z" />
<glyph unicode="&#xfb;" horiz-adv-x="1099" d="M159 447v620h76v-640q0 -190 74 -285t238 -95q150 0 237.5 102t88.5 285v633h70v-1067h-70v209q-40 -102 -122.5 -160t-203.5 -58q-200 0 -294 115t-94 341zM314 1270l231 233h31l207 -233h-53l-169 211l-186 -211h-61z" />
<glyph unicode="&#xfc;" horiz-adv-x="1099" d="M159 447v620h76v-640q0 -190 74 -285t238 -95q150 0 237.5 102t88.5 285v633h70v-1067h-70v209q-40 -102 -122.5 -160t-203.5 -58q-200 0 -294 115t-94 341zM363 1367q0 26 17.5 43t41.5 17q25 0 42 -17t17 -43q0 -24 -17 -41t-42 -17q-24 0 -41.5 17t-17.5 41zM599 1367 q0 26 16.5 43t42 17t42 -17t16.5 -43q0 -24 -16.5 -41t-42 -17t-42 17t-16.5 41z" />
<glyph unicode="&#xfd;" horiz-adv-x="870" d="M58 1067h82l302 -786l317 786h76l-559 -1366h-75l212 497zM286 1245l304 234h106l-365 -234h-45z" />
<glyph unicode="&#xfe;" horiz-adv-x="1024" d="M214 0v1220h65v-322q80 132 270 132q153 0 237.5 -100t84.5 -270q0 -90 -13 -157t-46 -128.5t-99.5 -94.5t-163.5 -33q-193 0 -270 129v-376h-65zM279 616q0 -147 71.5 -237t198.5 -90q65 0 113 19.5t76 51t44.5 81.5t22 100.5t5.5 118.5q0 147 -68 237.5t-193 90.5 q-67 0 -116.5 -21t-78.5 -53.5t-46 -83t-23 -100t-6 -114.5z" />
<glyph unicode="&#xff;" horiz-adv-x="887" d="M58 1067h82l302 -786l317 786h76l-559 -1366h-75l212 497zM258 1252q0 26 17 43t41 17q26 0 42.5 -17t16.5 -43q0 -24 -16.5 -41t-42.5 -17q-24 0 -41 17t-17 41zM493 1252q0 26 17 43t42 17t42 -17t17 -43q0 -24 -17 -41t-42 -17t-42 17t-17 41z" />
<glyph unicode="&#x2c6;" horiz-adv-x="814" d="M177 1429l231 234h31l207 -234h-53l-169 212l-186 -212h-61z" />
<glyph unicode="&#x2da;" horiz-adv-x="602" d="M-330 469q0 137 97 233.5t232.5 96.5t232.5 -97t97 -233t-97 -232.5t-232.5 -96.5t-232.5 96.5t-97 232.5zM-269 469q0 -113 77 -189t189.5 -76t190 76t77.5 189q0 114 -77.5 191.5t-190 77.5t-189.5 -77.5t-77 -191.5z" />
<glyph unicode="&#x2dc;" horiz-adv-x="647" d="M89 1414v46q8 7 32 33.5t48.5 41.5t57.5 15q42 0 77.5 -24t64.5 -48t53 -24q33 0 55.5 10t49.5 37l27 26v-45q-1 -1 -25 -28t-46 -37.5t-55 -10.5q-31 0 -57 15t-41 32.5t-42 32.5t-61 15q-36 0 -62 -16t-48 -41t-28 -30z" />
<glyph unicode="&#x5b0;" d="M-45 -278.5q0 18.5 12 33t34 14.5q19 0 32 -14t13 -33.5t-13 -32.5t-32 -13t-32.5 13.5t-13.5 32zM-45 -475q0 20 12.5 33.5t33.5 13.5q20 0 32.5 -13t12.5 -34q0 -18 -13 -33t-31.5 -15t-32.5 15t-14 33z" />
<glyph unicode="&#x5b1;" d="M-262 -278q0 18 12.5 32.5t35.5 14.5q18 0 31.5 -14t13.5 -33t-13.5 -32.5t-31.5 -13.5q-21 0 -34.5 13t-13.5 33zM-151 -498q0 18 13 32.5t34 14.5q17 0 30.5 -13t13.5 -34t-12.5 -34.5t-31.5 -13.5t-33 15t-14 33zM-39 -278q0 19 13 33t33 14q18 0 33 -13.5t15 -33.5 t-13.5 -33t-34.5 -13q-19 0 -32.5 13.5t-13.5 32.5zM169 -278.5q0 19.5 13.5 33.5t31.5 14q22 0 35 -14.5t13 -33t-14.5 -32t-33.5 -13.5q-18 0 -31.5 13t-13.5 32.5zM169 -498q0 20 13.5 33.5t31.5 13.5t33 -13t15 -34q0 -18 -14.5 -33t-33.5 -15q-18 0 -31.5 13t-13.5 35z " />
<glyph unicode="&#x5b2;" d="M-220 -240h235v-38h-235v38zM126 -278q0 20 13 33.5t35 13.5q20 0 33 -14.5t13 -32.5q0 -20 -12 -33t-34 -13q-20 0 -34 13t-14 33zM126 -452q0 20 13 33.5t35 13.5q17 0 31.5 -13t14.5 -34q0 -18 -13 -33t-33 -15t-34 13t-14 35z" />
<glyph unicode="&#x5b3;" d="M-289 -240h304v-48h-127v-159h-50v159h-127v48zM126 -278q0 20 13 33.5t35 13.5q20 0 33 -14.5t13 -32.5q0 -20 -12 -33t-34 -13q-20 0 -34 13t-14 33zM126 -440q0 19 13 33t35 14q17 0 31.5 -13.5t14.5 -33.5q0 -19 -13 -34t-33 -15t-34 13.5t-14 35.5z" />
<glyph unicode="&#x5b4;" d="M-45 -400q0 18 12 32.5t34 14.5q19 0 32 -14t13 -33.5t-13 -33t-32 -13.5t-32.5 13.5t-13.5 33.5z" />
<glyph unicode="&#x5b5;" d="M-156 -400q0 20 13 33.5t35 13.5q16 0 29 -13.5t13 -33.5t-12.5 -33.5t-29.5 -13.5q-21 0 -34.5 13.5t-13.5 33.5zM63 -400q0 18 12 32.5t33 14.5q23 0 35.5 -14.5t12.5 -32.5q0 -20 -13.5 -33.5t-34.5 -13.5q-17 0 -31 12.5t-14 34.5z" />
<glyph unicode="&#x5b6;" d="M-156 -270.5q0 20.5 13 34t35 13.5q16 0 29 -12.5t13 -34.5q0 -19 -12.5 -32t-29.5 -13q-21 0 -34.5 12t-13.5 32.5zM-46 -446q0 19 12.5 32.5t33.5 13.5q18 0 31.5 -13.5t13.5 -32.5q0 -21 -12.5 -34.5t-32.5 -13.5t-33 13.5t-13 34.5zM63 -270q0 18 12 32.5t33 14.5 q23 0 35.5 -14t12.5 -33q0 -21 -13.5 -33t-34.5 -12q-18 0 -31.5 12t-13.5 33z" />
<glyph unicode="&#x5b7;" d="M-144 -365h288v-42h-288v42z" />
<glyph unicode="&#x5b8;" d="M-144 -334h288v-37h-118v-140h-50v140h-120v37z" />
<glyph unicode="&#x5b9;" d="M-45 1584.5q0 19.5 12.5 33.5t33.5 14q19 0 32 -13.5t13 -33.5t-13 -34.5t-31.5 -14.5t-32.5 14.5t-14 34z" />
<glyph unicode="&#x5bb;" d="M-201 -278.5q0 18.5 12.5 33t34.5 14.5q18 0 32.5 -13.5t14.5 -33.5q0 -19 -14 -32.5t-33.5 -13.5t-33 13.5t-13.5 32zM-44 -383q0 20 13 32t33 12q19 0 32 -13t13 -31q0 -21 -12.5 -34t-32 -13t-33 13t-13.5 34zM112 -488.5q0 19.5 12.5 33t34.5 13.5q18 0 30 -13.5 t12 -33t-12.5 -34t-29.5 -14.5q-20 0 -33.5 14.5t-13.5 34z" />
<glyph unicode="&#x5bc;" d="M-47 667q0 18 13 32.5t34 14.5q17 0 32 -13t15 -34t-13.5 -34.5t-33.5 -13.5t-33.5 13.5t-13.5 34.5z" />
<glyph unicode="&#x5bd;" d="M-20 -177h40v-270h-40v270z" />
<glyph unicode="&#x5be;" horiz-adv-x="627" d="M76 1140v65h463v-65h-463z" />
<glyph unicode="&#x5c0;" d="M-21 0v1221h42v-1221h-42z" />
<glyph unicode="&#x5c1;" d="M-67 1538q0 28 21 45.5t46 17.5q32 0 50 -18.5t18 -45t-18 -45.5t-50 -19q-26 0 -46.5 19.5t-20.5 45.5z" />
<glyph unicode="&#x5c2;" d="M-67 1538q0 28 21 45.5t46 17.5q31 0 49.5 -19t18.5 -47q-2 -26 -20 -44t-48 -18q-26 0 -46.5 19.5t-20.5 45.5z" />
<glyph unicode="&#x5d0;" horiz-adv-x="1255" d="M186 0v416q0 69 6 119t22.5 99.5t46 83.5t77.5 59t116 36l-268 407h82l455 -685q129 -4 198.5 61.5t69.5 216.5v407h83v-383q0 -81 -19 -144.5t-49 -101.5t-72.5 -62t-85 -33.5t-90.5 -10.5l318 -485h-82l-509 768q-217 -38 -217 -262v-506h-82z" />
<glyph unicode="&#x5d1;" horiz-adv-x="1224" d="M125 0v66h755v1089h-755v65h836v-1154h198v-66h-1034z" />
<glyph unicode="&#x5d2;" horiz-adv-x="764" d="M108 0v80h113q60 3 107 26t75.5 61t49 86t26.5 101t8.5 106.5t-5.5 100.5l-73 594h-227v65h306l141 -1220h-76l-37 309h-5q-51 -309 -329 -309h-74z" />
<glyph unicode="&#x5d3;" horiz-adv-x="1144" d="M89 1155v65h923v-65h-160v-1155h-90v1155h-673z" />
<glyph unicode="&#x5d4;" horiz-adv-x="1306" d="M182 1155v65h927v-1220h-85v1155h-842zM189 0v669h89v-669h-89z" />
<glyph unicode="&#x5d5;" horiz-adv-x="560" d="M232 0v1220h88v-1220h-88z" />
<glyph unicode="&#x5d6;" horiz-adv-x="838" d="M118 1155v65h613v-65h-231q-40 -45 -60 -102t-21.5 -125t3.5 -119.5t15 -125.5q3 -19 5 -30l103 -653h-87q-68 424 -102 637q-16 111 -18.5 196.5t20.5 177.5t79 144h-319z" />
<glyph unicode="&#x5d7;" horiz-adv-x="1308" d="M190 0v1220h530q82 0 145 -13.5t107.5 -36t76 -61t49.5 -78.5t28 -99t13 -112t3 -128v-692h-90v735q0 127 -16.5 208.5t-57.5 128.5t-99.5 65t-151.5 18h-450v-1155h-87z" />
<glyph unicode="&#x5d8;" horiz-adv-x="1354" d="M143 1220h89l158 -1154h259q112 0 190 23.5t137 81t87 159.5t28 254v571h-393v65h478v-573q0 -349 -119 -498t-387 -149h-361z" />
<glyph unicode="&#x5d9;" horiz-adv-x="532" d="M232 577v643h87v-643h-87z" />
<glyph unicode="&#x5da;" horiz-adv-x="960" d="M53 1155v65h735v-1519h-90v1454h-645z" />
<glyph unicode="&#x5db;" horiz-adv-x="1068" d="M138 1155v65h360q241 0 340.5 -120.5t99.5 -378.5v-243q0 -250 -101.5 -364t-338.5 -114h-358v66h396q153 0 234 88.5t81 267.5v367q0 178 -81.5 272t-233.5 94h-398z" />
<glyph unicode="&#x5dc;" horiz-adv-x="1071" d="M107 1155v315h90v-250h777l-398 -1220h-90l382 1155h-761z" />
<glyph unicode="&#x5dd;" horiz-adv-x="1256" d="M172 0v1220h512q81 0 141.5 -9t111.5 -31.5t85.5 -60.5t58.5 -95.5t35 -137t11 -184.5v-702h-955zM258 66h784v707q0 190 -68.5 286t-228.5 96h-487v-1089z" />
<glyph unicode="&#x5de;" horiz-adv-x="1268" d="M136 0l219 1155h-219v65h525q111 0 189.5 -24t130 -69t80.5 -120t40.5 -165t11.5 -215v-627h-499v66h415v660q0 231 -85.5 330t-250.5 99h-258l-219 -1155h-80z" />
<glyph unicode="&#x5df;" horiz-adv-x="595" d="M264 -299v1519h88v-1519h-88z" />
<glyph unicode="&#x5e0;" horiz-adv-x="690" d="M90 66h146q94 0 128 51t34 175v863h-166v65h256v-916q0 -167 -56 -235.5t-202 -68.5h-138z" />
<glyph unicode="&#x5e1;" horiz-adv-x="1271" d="M128 1220h997v-563q0 -348 -137 -502.5t-427 -154.5h-285zM218 1155l132 -1089h200q57 0 102.5 4t98.5 17t93 35.5t78.5 61.5t63.5 92.5t40.5 131.5t15.5 176v571h-824z" />
<glyph unicode="&#x5e2;" horiz-adv-x="1270" d="M51 -56l337 110l-216 1166h90l205 -1140q277 91 414 217t137 334v589h83v-516q0 -254 -122.5 -405t-412.5 -250l-499 -167z" />
<glyph unicode="&#x5e3;" horiz-adv-x="1160" d="M152 581v639h478q108 0 181 -35t113.5 -107.5t56.5 -164.5t16 -223v-989h-85v1045q0 197 -64.5 303t-217.5 106h-391v-574h-87z" />
<glyph unicode="&#x5e4;" horiz-adv-x="1239" d="M198 0v66h480q153 0 234.5 88.5t81.5 267.5v367q0 178 -82 272t-234 94h-397v-577h-83v642h443q241 0 340.5 -120.5t99.5 -378.5v-243q0 -250 -102 -364t-338 -114h-443z" />
<glyph unicode="&#x5e5;" horiz-adv-x="1076" d="M145 1220h87l164 -760q89 6 154 19.5t124 44t95 79t56.5 124.5t20.5 179v314h83v-325q0 -246 -130 -363.5t-388 -134.5l146 -696h-88z" />
<glyph unicode="&#x5e6;" horiz-adv-x="1245" d="M91 1220h94l508 -691q288 -3 288 248v443h83v-407q0 -171 -79.5 -251.5t-253.5 -87.5l351 -474h-964v66h823z" />
<glyph unicode="&#x5e7;" horiz-adv-x="1315" d="M152 1155v65h982v-617q0 -176 -29 -293t-92.5 -185.5t-154 -96.5t-223.5 -28h-57v64h64q84 0 141.5 11t111 44.5t84.5 92t49 156t18 235.5v552h-894zM197 -299v1067h87v-1067h-87z" />
<glyph unicode="&#x5e8;" horiz-adv-x="1026" d="M68 1155v65h377q82 0 145.5 -13t108.5 -36t77 -61t51 -79t30 -99t14.5 -112t3.5 -128v-692h-86v735q0 127 -18.5 208.5t-61.5 128.5t-103.5 65t-153.5 18h-384z" />
<glyph unicode="&#x5e9;" horiz-adv-x="1546" d="M168 1220h83l108 -1154h433q252 0 372.5 92t120.5 320v742h82v-694q0 -125 -25.5 -217t-73 -151t-121 -94.5t-158.5 -49.5t-199 -14h-506zM736 431v789h83v-789h-83z" />
<glyph unicode="&#x5ea;" horiz-adv-x="1403" d="M59 0v66h268v1089h-156v65h627q82 0 145 -13.5t107.5 -36t76 -61t49.5 -78.5t28 -99t13 -112t3 -128v-692h-85v735q0 127 -17 208.5t-58.5 128.5t-101 65t-153.5 18h-396v-1155h-350z" />
<glyph unicode="&#x5f0;" horiz-adv-x="1120" d="M792 0v1220h88v-1220h-88zM232 0v1220h88v-1220h-88z" />
<glyph unicode="&#x5f1;" horiz-adv-x="1092" d="M764 0v1220h88v-1220h-88zM232 577v643h87v-643h-87z" />
<glyph unicode="&#x5f2;" horiz-adv-x="1064" d="M764 577v643h87v-643h-87zM232 577v643h87v-643h-87z" />
<glyph unicode="&#x2000;" horiz-adv-x="1177" />
<glyph unicode="&#x2001;" horiz-adv-x="2355" />
<glyph unicode="&#x2002;" horiz-adv-x="1177" />
<glyph unicode="&#x2003;" horiz-adv-x="2355" />
<glyph unicode="&#x2004;" horiz-adv-x="784" />
<glyph unicode="&#x2005;" horiz-adv-x="588" />
<glyph unicode="&#x2006;" horiz-adv-x="392" />
<glyph unicode="&#x2007;" horiz-adv-x="1011" />
<glyph unicode="&#x2008;" horiz-adv-x="571" />
<glyph unicode="&#x2009;" horiz-adv-x="234" />
<glyph unicode="&#x200a;" horiz-adv-x="23" />
<glyph unicode="&#x200b;" />
<glyph unicode="&#x200c;" />
<glyph unicode="&#x200d;" />
<glyph unicode="&#x200e;" horiz-adv-x="784" />
<glyph unicode="&#x200f;" horiz-adv-x="784" />
<glyph unicode="&#x2010;" horiz-adv-x="939" d="M123 581v65h676v-65h-676z" />
<glyph unicode="&#x2011;" horiz-adv-x="939" d="M123 581v65h676v-65h-676z" />
<glyph unicode="&#x2012;" horiz-adv-x="1011" d="M123 581v65h749v-65h-749z" />
<glyph unicode="&#x2013;" horiz-adv-x="1274" d="M15 583v54h1258v-54h-1258z" />
<glyph unicode="&#x2014;" horiz-adv-x="2503" d="M94 589v42h2377v-42h-2377z" />
<glyph unicode="&#x2015;" horiz-adv-x="4710" d="M123 581v65h4447v-65h-4447z" />
<glyph unicode="&#x2016;" horiz-adv-x="1255" d="M937 -299v1826h47v-1826h-47zM309 -299v1826h47v-1826h-47z" />
<glyph unicode="&#x2018;" horiz-adv-x="418" d="M125 978l79 402h87l1 -99l-126 -303h-41z" />
<glyph unicode="&#x2019;" horiz-adv-x="416" d="M125 978l79 402h87l1 -99l-126 -303h-41z" />
<glyph unicode="&#x201a;" horiz-adv-x="420" d="M125 978l79 402h87l1 -99l-126 -303h-41z" />
<glyph unicode="&#x201c;" horiz-adv-x="591" d="M118 981l71 399h77l1 -99l-113 -300h-36zM294 981l69 399h77l2 -99l-112 -300h-36z" />
<glyph unicode="&#x201d;" horiz-adv-x="586" d="M118 981l71 399h77l1 -99l-113 -300h-36zM294 981l69 399h77l2 -99l-112 -300h-36z" />
<glyph unicode="&#x201e;" horiz-adv-x="591" d="M118 981l71 399h77l1 -99l-113 -300h-36zM294 981l69 399h77l2 -99l-112 -300h-36z" />
<glyph unicode="&#x2020;" horiz-adv-x="899" d="M-30 865h991l-496 -863zM98 798l371 -650l368 650h-739z" />
<glyph unicode="&#x2021;" horiz-adv-x="948" d="M-15 285l495 862l496 -862h-991zM112 351h739l-367 652z" />
<glyph unicode="&#x2022;" horiz-adv-x="773" d="M121 614q0 108 76 183.5t184 75.5t183 -75.5t75 -183.5t-75 -183.5t-183 -75.5t-184 75.5t-76 183.5z" />
<glyph unicode="&#x2024;" horiz-adv-x="571" d="M237 0v169h138v-169h-138z" />
<glyph unicode="&#x2025;" horiz-adv-x="1143" d="M809 0v169h138v-169h-138zM237 0v169h138v-169h-138z" />
<glyph unicode="&#x2026;" horiz-adv-x="1431" d="M199 0v169h138v-169h-138zM622 0v169h138v-169h-138zM1082 0v169h138v-169h-138z" />
<glyph unicode="&#x202a;" />
<glyph unicode="&#x202f;" horiz-adv-x="385" />
<glyph unicode="&#x2030;" horiz-adv-x="1396" d="M107 795v231q0 101 43.5 150t138.5 49q93 0 137 -49t44 -150v-231q0 -102 -44 -150t-137 -48q-95 0 -138.5 48t-43.5 150zM116 0h45l739 1222h-42zM148 764q0 -58 38.5 -97.5t103.5 -39.5t102.5 38.5t36.5 98.5v292q1 58 -37 98.5t-102 40.5q-67 0 -104.5 -38t-37.5 -101 v-292zM550 191v231q0 102 43.5 151t138 49t138 -49t43.5 -151v-231q0 -102 -43.5 -150.5t-138 -48.5t-138 48.5t-43.5 150.5zM591 160q0 -58 38.5 -97.5t103.5 -39.5q66 0 103.5 38t36.5 99v292q1 59 -37 99t-103 40q-67 0 -104.5 -38t-37.5 -101v-292zM997 191v231 q0 102 43.5 151t138 49t138 -49t43.5 -151v-231q0 -102 -43.5 -150.5t-138 -48.5t-138 48.5t-43.5 150.5zM1038 160q0 -58 39 -97.5t103 -39.5q67 0 104 38t36 99v292q1 59 -37 99t-103 40q-67 0 -104.5 -38t-37.5 -101v-292z" />
<glyph unicode="&#x2032;" horiz-adv-x="420" d="M121 978l78 402h87l2 -99l-127 -303h-40z" />
<glyph unicode="&#x2033;" horiz-adv-x="841" d="M542 978l78 402h87l2 -99l-127 -303h-40zM121 978l78 402h87l2 -99l-127 -303h-40z" />
<glyph unicode="&#x2034;" horiz-adv-x="1262" d="M963 978l78 402h87l2 -99l-127 -303h-40zM542 978l78 402h87l2 -99l-127 -303h-40zM121 978l78 402h87l2 -99l-127 -303h-40z" />
<glyph unicode="&#x2035;" horiz-adv-x="420" d="M125 978l79 402h87l1 -99l-126 -303h-41z" />
<glyph unicode="&#x2036;" horiz-adv-x="841" d="M546 978l79 402h87l1 -99l-126 -303h-41zM125 978l79 402h87l1 -99l-126 -303h-41z" />
<glyph unicode="&#x2037;" horiz-adv-x="1262" d="M967 978l79 402h87l1 -99l-126 -303h-41zM546 978l79 402h87l1 -99l-126 -303h-41zM125 978l79 402h87l1 -99l-126 -303h-41z" />
<glyph unicode="&#x2039;" horiz-adv-x="1099" d="M20 585v54l939 502v-59l-892 -474l892 -463v-61z" />
<glyph unicode="&#x203a;" horiz-adv-x="1196" d="M225 84v61l893 463l-893 474v59l940 -502v-54z" />
<glyph unicode="&#x203c;" horiz-adv-x="1120" d="M781 0h138v169h-138v-169zM810 742v478h79v-478l-25 -400h-29zM221 0h138v169h-138v-169zM250 742v478h79v-478l-25 -400h-29z" />
<glyph unicode="&#x2047;" horiz-adv-x="1860" d="M1084 848q-15 170 69 274.5t275 104.5q106 0 176.5 -49t90.5 -119t-4 -150t-91 -140q-65 -58 -104.5 -108.5t-56.5 -103t-21 -94t-2 -108.5h-51q-13 136 36 243.5t165 223.5q46 46 62 108t1 117.5t-69.5 94t-140.5 38.5q-135 0 -201.5 -77.5t-63.5 -254.5h-70zM1322 0 h138v169h-138v-169zM154 848q-15 170 69 274.5t275 104.5q106 0 176.5 -49t90.5 -119t-4 -150t-91 -140q-65 -58 -104.5 -108.5t-56.5 -103t-21 -94t-2 -108.5h-51q-13 136 36 243.5t165 223.5q46 46 62 108t1 117.5t-69.5 94t-140.5 38.5q-135 0 -201.5 -77.5t-63.5 -254.5 h-70zM392 0h138v169h-138v-169z" />
<glyph unicode="&#x2048;" horiz-adv-x="1490" d="M1151 0h138v169h-138v-169zM1180 742v478h79v-478l-25 -400h-29zM154 848q-15 170 69 274.5t275 104.5q106 0 176.5 -49t90.5 -119t-4 -150t-91 -140q-65 -58 -104.5 -108.5t-56.5 -103t-21 -94t-2 -108.5h-51q-13 136 36 243.5t165 223.5q46 46 62 108t1 117.5t-69.5 94 t-140.5 38.5q-135 0 -201.5 -77.5t-63.5 -254.5h-70zM392 0h138v169h-138v-169z" />
<glyph unicode="&#x2049;" horiz-adv-x="1490" d="M714 848q-15 170 69 274.5t275 104.5q106 0 176.5 -49t90.5 -119t-4 -150t-91 -140q-65 -58 -104.5 -108.5t-56.5 -103t-21 -94t-2 -108.5h-51q-13 136 36 243.5t165 223.5q46 46 62 108t1 117.5t-69.5 94t-140.5 38.5q-135 0 -201.5 -77.5t-63.5 -254.5h-70zM952 0h138 v169h-138v-169zM221 0h138v169h-138v-169zM250 742v478h79v-478l-25 -400h-29z" />
<glyph unicode="&#x2057;" horiz-adv-x="1683" d="M1384 978l78 402h87l2 -99l-127 -303h-40zM963 978l78 402h87l2 -99l-127 -303h-40zM542 978l78 402h87l2 -99l-127 -303h-40zM121 978l78 402h87l2 -99l-127 -303h-40z" />
<glyph unicode="&#x205f;" horiz-adv-x="482" />
<glyph unicode="&#x2060;" />
<glyph unicode="&#x20ac;" horiz-adv-x="1038" d="M109 607v54h155v177h-155v54h155v184q0 213 90 308t269 95q75 0 133 -18.5t90.5 -45.5t52.5 -63t26.5 -65.5t6.5 -59.5h-76q-14 193 -233 193q-41 0 -85.5 -13t-89 -42.5t-73.5 -87.5t-29 -135l-1 -250h240v-54h-240v-177h240v-54h-240l1 -254q0 -152 85 -232t192 -80 t170 57t63 142h76q-2 -34 -9.5 -65.5t-28 -67.5t-53.5 -62.5t-89 -43.5t-129 -17q-177 0 -268 93.5t-91 295.5v234h-155z" />
<glyph unicode="&#x2122;" horiz-adv-x="1160" d="M51 1411v59h371v-59h-143v-539h-73v539h-155zM514 872v598h114l160 -363l169 363h103v-598h-63v553l-162 -375h-90l-164 375v-553h-67z" />
<glyph unicode="&#xe000;" horiz-adv-x="1065" d="M0 1065h1065v-1065h-1065v1065z" />
<glyph unicode="&#xfb00;" horiz-adv-x="1223" d="M714 1005v62h133v106q0 163 39 230t137 67h101v-61h-104q-62 0 -81 -48.5t-19 -176.5v-117h199v-62h-199v-1005h-73v1005h-133zM102 1005v62h133v106q0 163 39 230t137 67h101v-61h-104q-62 0 -81 -48.5t-19 -176.5v-117h199v-62h-199v-1005h-73v1005h-133z" />
<glyph unicode="&#xfb01;" horiz-adv-x="1077" d="M813 0v1067h75v-1067h-75zM813 1308v162h75v-162h-75zM102 1005v62h133v106q0 163 39 230t137 67h101v-61h-104q-62 0 -81 -48.5t-19 -176.5v-117h199v-62h-199v-1005h-73v1005h-133z" />
<glyph unicode="&#xfb02;" horiz-adv-x="1196" d="M799 297v1173h77v-1199q0 -121 28.5 -163t115.5 -42h142v-66h-139q-133 0 -178.5 64.5t-45.5 232.5zM102 1005v62h133v106q0 163 39 230t137 67h101v-61h-104q-62 0 -81 -48.5t-19 -176.5v-117h199v-62h-199v-1005h-73v1005h-133z" />
<glyph unicode="&#xfb03;" horiz-adv-x="1689" d="M1425 0v1067h75v-1067h-75zM1425 1308v162h75v-162h-75zM714 1005v62h133v106q0 163 39 230t137 67h101v-61h-104q-62 0 -81 -48.5t-19 -176.5v-117h199v-62h-199v-1005h-73v1005h-133zM102 1005v62h133v106q0 163 39 230t137 67h101v-61h-104q-62 0 -81 -48.5 t-19 -176.5v-117h199v-62h-199v-1005h-73v1005h-133z" />
<glyph unicode="&#xfb04;" horiz-adv-x="1807" d="M1411 297v1173h77v-1199q0 -121 28.5 -163t115.5 -42h142v-66h-139q-133 0 -178.5 64.5t-45.5 232.5zM714 1005v62h133v106q0 163 39 230t137 67h101v-61h-104q-62 0 -81 -48.5t-19 -176.5v-117h199v-62h-199v-1005h-73v1005h-133zM102 1005v62h133v106q0 163 39 230 t137 67h101v-61h-104q-62 0 -81 -48.5t-19 -176.5v-117h199v-62h-199v-1005h-73v1005h-133z" />
<glyph unicode="&#xfb06;" horiz-adv-x="1517" d="M991 1018v49h137v270h72v-270h197v-49h-197v-747q0 -121 27.5 -163t115.5 -42h149v-66h-137q-134 0 -180.5 64.5t-46.5 232.5v721h-137zM112 306h71q0 -68 25 -120.5t66.5 -81t88 -43t97.5 -14.5q131 0 193.5 55.5t62.5 165.5q0 25 -5 48t-10.5 41t-21 36.5t-25.5 30.5 t-33.5 27.5t-36 23t-44 22.5t-44.5 20.5t-50 21.5q-163 74 -235.5 138.5t-72.5 160.5q0 114 87 181t237 67q170 0 256 -90q84 -87 84 -219v-9h-73q0 124 -66 196t-205 72q-108 0 -175.5 -53.5t-67.5 -139.5q0 -83 61 -134.5t229 -124.5q151 -63 218 -132t67 -189 q0 -125 -92 -197.5t-240 -72.5q-97 0 -174 31q-76 32 -126 104q-47 68 -46 166v12z" />
<glyph unicode="&#xfb1d;" horiz-adv-x="607" d="M20 774q0 18 13 32.5t34 14.5q17 0 32 -13t15 -34t-14 -34.5t-33.5 -13.5t-33 13.5t-13.5 34.5zM282 577v643h86v-643h-86z" />
<glyph unicode="&#xfb1f;" horiz-adv-x="1064" d="M764 577v643h87v-643h-87zM232 577v643h87v-643h-87zM-144 -365h288v-42h-288v42z" />
<glyph unicode="&#xfb20;" horiz-adv-x="1270" d="M51 -56l337 110l-216 1166h90l205 -1140q277 91 414 217t137 334v589h83v-516q0 -254 -122.5 -405t-412.5 -250l-499 -167z" />
<glyph unicode="&#xfb21;" horiz-adv-x="1255" d="M186 0v416q0 69 6 119t22.5 99.5t46 83.5t77.5 59t116 36l-268 407h82l455 -685q129 -4 198.5 61.5t69.5 216.5v407h83v-383q0 -81 -19 -144.5t-49 -101.5t-72.5 -62t-85 -33.5t-90.5 -10.5l318 -485h-82l-509 768q-217 -38 -217 -262v-506h-82z" />
<glyph unicode="&#xfb22;" horiz-adv-x="1144" d="M89 1155v65h923v-65h-160v-1155h-90v1155h-673z" />
<glyph unicode="&#xfb23;" horiz-adv-x="1306" d="M182 1155v65h927v-1220h-85v1155h-842zM189 0v669h89v-669h-89z" />
<glyph unicode="&#xfb24;" horiz-adv-x="1068" d="M138 1155v65h360q241 0 340.5 -120.5t99.5 -378.5v-243q0 -250 -101.5 -364t-338.5 -114h-358v66h396q153 0 234 88.5t81 267.5v367q0 178 -81.5 272t-233.5 94h-398z" />
<glyph unicode="&#xfb25;" horiz-adv-x="1071" d="M107 1155v315h90v-250h777l-398 -1220h-90l382 1155h-761z" />
<glyph unicode="&#xfb26;" horiz-adv-x="1256" d="M172 0v1220h512q81 0 141.5 -9t111.5 -31.5t85.5 -60.5t58.5 -95.5t35 -137t11 -184.5v-702h-955zM258 66h784v707q0 190 -68.5 286t-228.5 96h-487v-1089z" />
<glyph unicode="&#xfb27;" horiz-adv-x="1026" d="M68 1155v65h377q82 0 145.5 -13t108.5 -36t77 -61t51 -79t30 -99t14.5 -112t3.5 -128v-692h-86v735q0 127 -18.5 208.5t-61.5 128.5t-103.5 65t-153.5 18h-384z" />
<glyph unicode="&#xfb28;" horiz-adv-x="1403" d="M59 0v66h268v1089h-156v65h627q82 0 145 -13.5t107.5 -36t76 -61t49.5 -78.5t28 -99t13 -112t3 -128v-692h-85v735q0 127 -17 208.5t-58.5 128.5t-101 65t-153.5 18h-396v-1155h-350z" />
<glyph unicode="&#xfb29;" horiz-adv-x="1099" d="M87 578v64h436v436h63v-436h434v-64h-434v-433h-63v433h-436z" />
<glyph unicode="&#xfb2a;" horiz-adv-x="1535" d="M170 1220h83l108 -1154h434q251 0 371.5 92t120.5 320v742h83v-694q0 -125 -26 -217t-73 -151t-121 -94.5t-159 -49.5t-199 -14h-506zM738 431v789h83v-789h-83zM1286 1535.5q0 19.5 12.5 33t33.5 13.5q18 0 31.5 -13t13.5 -34q0 -19 -13.5 -33.5t-32 -14.5t-32 14.5 t-13.5 34z" />
<glyph unicode="&#xfb2b;" horiz-adv-x="1526" d="M156 1220h83l108 -1154h434q252 0 372 92t120 320v742h83v-694q0 -125 -26 -217t-73 -151t-120.5 -94.5t-159 -49.5t-198.5 -14h-506zM190 1584.5q0 19.5 12.5 33.5t33.5 14q18 0 31.5 -13.5t13.5 -33.5t-13.5 -34.5t-32 -14.5t-32 14.5t-13.5 34zM724 431v789h83v-789 h-83z" />
<glyph unicode="&#xfb2c;" horiz-adv-x="1578" d="M179 1220h83l108 -1154h434q252 0 372 92t120 320v742h83v-694q0 -125 -26 -217t-73 -151t-120.5 -94.5t-159 -49.5t-198.5 -14h-506zM486 849.5q0 19.5 13 33.5t33 14q19 0 32 -13t13 -34q0 -20 -13 -34t-31.5 -14t-32.5 14t-14 33.5zM748 431v789h82v-789h-82z M1300 1511.5q0 19.5 12.5 33t33.5 13.5q18 0 31 -13t13 -34q0 -19 -13 -33.5t-31.5 -14.5t-32 14.5t-13.5 34z" />
<glyph unicode="&#xfb2d;" horiz-adv-x="1575" d="M170 1522.5q0 19.5 13 33.5t33 14q19 0 32 -13.5t13 -33.5t-13 -34.5t-31.5 -14.5t-32.5 14.5t-14 34zM197 1220h82l109 -1154h433q252 0 372 92t120 320v742h83v-694q0 -125 -26 -217t-73 -151t-120.5 -94.5t-158.5 -49.5t-199 -14h-506zM498 859.5q0 19.5 12.5 33 t33.5 13.5q18 0 31.5 -13t13.5 -34q0 -19 -13.5 -33.5t-31.5 -14.5t-32 14.5t-14 34zM765 431v789h83v-789h-83z" />
<glyph unicode="&#xfb2e;" horiz-adv-x="1255" d="M186 0v416q0 69 6 119t22.5 99.5t46 83.5t77.5 59t116 36l-268 407h82l455 -685q129 -4 198.5 61.5t69.5 216.5v407h83v-383q0 -81 -19 -144.5t-49 -101.5t-72.5 -62t-85 -33.5t-90.5 -10.5l318 -485h-82l-509 768q-217 -38 -217 -262v-506h-82zM-144 -365h288v-42h-288 v42z" />
<glyph unicode="&#xfb2f;" horiz-adv-x="1255" d="M186 0v416q0 69 6 119t22.5 99.5t46 83.5t77.5 59t116 36l-268 407h82l455 -685q129 -4 198.5 61.5t69.5 216.5v407h83v-383q0 -81 -19 -144.5t-49 -101.5t-72.5 -62t-85 -33.5t-90.5 -10.5l318 -485h-82l-509 768q-217 -38 -217 -262v-506h-82zM-144 -334h288v-37h-118 v-140h-50v140h-120v37z" />
<glyph unicode="&#xfb30;" horiz-adv-x="1255" d="M186 0v416q0 69 6 119t22.5 99.5t46 83.5t77.5 59t116 36l-268 407h82l455 -685q129 -4 198.5 61.5t69.5 216.5v407h83v-383q0 -81 -19 -144.5t-49 -101.5t-72.5 -62t-85 -33.5t-90.5 -10.5l318 -485h-82l-509 768q-217 -38 -217 -262v-506h-82zM-47 667q0 18 13 32.5 t34 14.5q17 0 32 -13t15 -34t-13.5 -34.5t-33.5 -13.5t-33.5 13.5t-13.5 34.5z" />
<glyph unicode="&#xfb31;" horiz-adv-x="1207" d="M83 0v66h754v1089h-754v65h836v-1154h198v-66h-1034zM383 644q0 18 13 32.5t34 14.5q17 0 32 -13t15 -34t-13.5 -34.5t-33 -13.5t-33.5 13.5t-14 34.5z" />
<glyph unicode="&#xfb32;" horiz-adv-x="829" d="M128 0v80h112q60 3 107 26t76 61t49 86t26.5 101t8.5 106.5t-6 100.5l-72 594h-228v65h306l142 -1220h-76l-37 309h-6q-50 -309 -329 -309h-73zM162 612q0 18 13.5 32.5t33.5 14.5q18 0 32.5 -13.5t14.5 -34t-13.5 -34t-33 -13.5t-33.5 13.5t-14 34.5z" />
<glyph unicode="&#xfb33;" horiz-adv-x="1146" d="M150 1155v65h923v-65h-160v-1155h-90v1155h-673zM390 667q0 18 13 32.5t34 14.5q17 0 32 -13t15 -34t-13.5 -34.5t-33.5 -13.5t-33.5 13.5t-13.5 34.5z" />
<glyph unicode="&#xfb34;" horiz-adv-x="1276" d="M169 1155v65h927v-1220h-85v1155h-842zM176 0v669h90v-669h-90zM599 662q0 -20 14 -34t33.5 -14t33 14t13.5 34.5t-14.5 34t-32.5 13.5q-20 0 -33.5 -14.5t-13.5 -33.5z" />
<glyph unicode="&#xfb35;" horiz-adv-x="616" d="M2 649.5q0 19.5 13 33.5t33 14q19 0 32 -13.5t13 -33.5t-13 -34.5t-31.5 -14.5t-32.5 14.5t-14 34zM288 0v1220h87v-1220h-87z" />
<glyph unicode="&#xfb36;" horiz-adv-x="821" d="M56 581.5q0 19.5 13 33.5t33 14q19 0 32 -13t13 -34q0 -20 -13 -34t-31.5 -14t-32.5 14t-14 33.5zM98 1155v65h613v-65h-231q-41 -45 -61 -102t-21 -125t3.5 -119.5t14.5 -125.5q4 -19 5 -30l103 -653h-87q-68 424 -101 637q-16 111 -19 196.5t20 177.5t79 144h-318z" />
<glyph unicode="&#xfb38;" horiz-adv-x="1301" d="M114 1220h90l157 -1154h259q113 0 190.5 23.5t136.5 81t87.5 159.5t28.5 254v571h-394v65h479v-573q0 -349 -119 -498t-387 -149h-361zM618 631q0 -20 13.5 -34t33 -14t33.5 14t14 34.5t-15 33.5t-32 13q-21 0 -34 -14t-13 -33z" />
<glyph unicode="&#xfb39;" horiz-adv-x="672" d="M41 809.5q0 19.5 13 33.5t33 14q19 0 32 -13.5t13 -33.5t-13 -34.5t-31.5 -14.5t-32.5 14.5t-14 34zM317 577v643h87v-643h-87z" />
<glyph unicode="&#xfb3a;" horiz-adv-x="939" d="M39 1155v65h735v-1519h-90v1454h-645zM260 601q0 -20 14 -34t33.5 -14t33 14t13.5 34.5t-15 34t-32 13.5q-21 0 -34 -14.5t-13 -33.5z" />
<glyph unicode="&#xfb3b;" horiz-adv-x="1049" d="M120 1155v65h360q241 0 340.5 -120.5t99.5 -378.5v-243q0 -250 -102 -364t-338 -114h-358v66h396q152 0 233.5 88.5t81.5 267.5v367q0 178 -82 272t-233 94h-398zM289 638q0 -20 13.5 -34t33 -14t33.5 14t14 34.5t-15 33.5t-32 13q-21 0 -34 -14t-13 -33z" />
<glyph unicode="&#xfb3c;" horiz-adv-x="1036" d="M105 1155v315h89v-250h778l-398 -1220h-90l382 1155h-761zM312 728q0 -21 13.5 -34.5t33 -13.5t33.5 13.5t14 34.5t-15 34t-32 13q-21 0 -34 -14.5t-13 -32.5z" />
<glyph unicode="&#xfb3e;" horiz-adv-x="1245" d="M125 0l220 1155h-220v65h526q110 0 189 -24t130 -69t80.5 -120t41 -165t11.5 -215v-627h-499v66h415v660q0 231 -85.5 330t-250.5 99h-259l-218 -1155h-81zM606 589q0 -21 14 -35t33.5 -14t33 14t13.5 35t-15 34t-32 13q-21 0 -34 -14.5t-13 -32.5z" />
<glyph unicode="&#xfb40;" horiz-adv-x="755" d="M154 66h146q94 0 128 51t34 175v863h-165v65h255v-916q0 -167 -56 -235.5t-202 -68.5h-138zM155 659q0 18 13.5 32.5t33.5 14.5q18 0 33 -13t15 -34t-14 -34.5t-33.5 -13.5t-33.5 13.5t-14 34.5z" />
<glyph unicode="&#xfb41;" horiz-adv-x="1278" d="M114 1220h997v-563q0 -348 -137 -502.5t-427 -154.5h-285zM205 1155l131 -1089h200q57 0 102.5 4t98.5 17t93.5 35.5t79 61.5t63 92.5t40 131.5t15.5 176v571h-823zM596 699.5q0 -19.5 13.5 -34t32 -14.5t32 14.5t13.5 33.5q0 21 -13.5 34t-31.5 13q-21 0 -33.5 -13.5 t-12.5 -33z" />
<glyph unicode="&#xfb43;" horiz-adv-x="1160" d="M152 581v639h478q108 0 181 -35t113.5 -107.5t56.5 -164.5t16 -223v-989h-85v1045q0 197 -64.5 303t-217.5 106h-391v-574h-87zM-47 667q0 18 13 32.5t34 14.5q17 0 32 -13t15 -34t-13.5 -34.5t-33.5 -13.5t-33.5 13.5t-13.5 34.5z" />
<glyph unicode="&#xfb44;" horiz-adv-x="1229" d="M192 0v66h481q153 0 234 88.5t81 267.5v367q0 178 -81.5 272t-233.5 94h-398v-577h-83v642h443q241 0 340.5 -120.5t99.5 -378.5v-243q0 -250 -101.5 -364t-338.5 -114h-443zM553 683.5q0 -19.5 14 -34t32.5 -14.5t31.5 14.5t13 33.5q0 21 -13 34t-32 13 q-21 0 -33.5 -13.5t-12.5 -33z" />
<glyph unicode="&#xfb46;" horiz-adv-x="1238" d="M100 1220h94l509 -691q287 -3 287 248v443h83v-407q0 -171 -79.5 -251.5t-252.5 -87.5l350 -474h-963v66h822zM229 481q0 -21 13.5 -35t33.5 -14t33.5 14t13.5 34.5t-15 34t-32 13.5q-21 0 -34 -14.5t-13 -32.5z" />
<glyph unicode="&#xfb47;" horiz-adv-x="1353" d="M185 1155v65h982v-617q0 -176 -28.5 -293t-92.5 -185.5t-154 -96.5t-224 -28h-56v64h63q84 0 141.5 11t111 44.5t84.5 92t49.5 156t18.5 235.5v552h-895zM230 -299v1067h87v-1067h-87zM672 714q0 -21 13.5 -34.5t33 -13.5t33.5 13.5t14 34.5t-15 34t-32 13q-21 0 -34 -14 t-13 -33z" />
<glyph unicode="&#xfb48;" horiz-adv-x="1026" d="M68 1155v65h377q82 0 145.5 -13t108.5 -36t77 -61t51 -79t30 -99t14.5 -112t3.5 -128v-692h-86v735q0 127 -18.5 208.5t-61.5 128.5t-103.5 65t-153.5 18h-384zM-47 667q0 18 13 32.5t34 14.5q17 0 32 -13t15 -34t-13.5 -34.5t-33.5 -13.5t-33.5 13.5t-13.5 34.5z" />
<glyph unicode="&#xfb49;" horiz-adv-x="1535" d="M175 1220h83l108 -1154h433q252 0 372 92t120 320v742h83v-694q0 -125 -26 -217t-73 -151t-120.5 -94.5t-158.5 -49.5t-199 -14h-506zM488 1005.5q0 -19.5 13.5 -34t32 -14.5t31.5 14.5t13 33.5q0 21 -13 34t-31 13q-21 0 -33.5 -13.5t-12.5 -33zM743 431v789h83v-789 h-83z" />
<glyph unicode="&#xfb4a;" horiz-adv-x="1420" d="M76 0v66h268v1089h-155v65h626q82 0 145.5 -13.5t107.5 -36t75.5 -61t49.5 -78.5t28.5 -99t13 -112t2.5 -128v-692h-85v735q0 127 -17 208.5t-58.5 128.5t-100.5 65t-154 18h-395v-1155h-351zM700 606q0 -21 14 -34.5t33.5 -13.5t33.5 13.5t14 34.5t-15 34t-32 13 q-21 0 -34.5 -14.5t-13.5 -32.5z" />
<glyph unicode="&#xfb4b;" horiz-adv-x="627" d="M268 1497.5q0 19.5 12.5 33t33.5 13.5q18 0 31.5 -13t13.5 -34q0 -19 -13.5 -33.5t-31.5 -14.5t-32 14.5t-14 34zM274 0v1220h87v-1220h-87z" />
<glyph unicode="&#xfb4f;" horiz-adv-x="2327" d="M1258 0v416q0 69 6 119t22.5 99.5t46 83.5t77.5 59t116 36l-268 407h82l455 -685q129 -4 198.5 61.5t69.5 216.5v407h83v-383q0 -81 -19 -144.5t-49 -101.5t-72.5 -62t-85 -33.5t-90.5 -10.5l318 -485h-82l-509 768q-217 -38 -217 -262v-506h-82zM107 1155v315h90v-250 h777l-398 -1220h-90l382 1155h-761z" />
</font>
</defs>
</svg>
