<?xml version="1.0" encoding="utf-8"?>
<!-- Generator: Adobe Illustrator 16.0.0, SVG Export Plug-In . SVG Version: 6.00 Build 0)  -->
<!DOCTYPE svg PUBLIC "-//W3C//DTD SVG 1.1//EN" "http://www.w3.org/Graphics/SVG/1.1/DTD/svg11.dtd">
<svg version="1.1"
	 id="svg6584" xmlns:dc="http://purl.org/dc/elements/1.1/" xmlns:cc="http://creativecommons.org/ns#" xmlns:rdf="http://www.w3.org/1999/02/22-rdf-syntax-ns#" xmlns:svg="http://www.w3.org/2000/svg"
	 xmlns="http://www.w3.org/2000/svg" xmlns:xlink="http://www.w3.org/1999/xlink" x="0px" y="0px" width="100px" height="100px"
	 viewBox="0 0 100 100" enable-background="new 0 0 100 100" xml:space="preserve">
<g id="layer1" transform="translate(0,-952.362)">
	<path id="path5421" fill="#888888" d="M62.5,973.195l-2.084,4.167l8.334,3.125v9.375H39.583v-4.167h4.167v-2.083
		c0-1.025-1.058-2.083-2.083-2.083H31.25c-2.083,0-2.083,2.083-2.083,2.083v2.083h6.25v4.167l-4.427,8.854
		c-1.249-0.3-2.566-0.521-3.906-0.521c-9.205,0-16.667,7.462-16.667,16.667s7.462,16.666,16.667,16.666
		c9.205,0,16.667-7.461,16.667-16.666c0,0,4.167,0,6.25,0c2.084,0,2.084-2.084,2.084-2.084c0.428-6.127,3.584-10.933,7.682-14.062
		c2.833-2.163,5.887-3.498,8.984-4.167v2.604v1.693c-7.185,1.853-12.5,8.252-12.5,16.016c0,9.205,7.462,16.667,16.666,16.667
		c9.205,0,16.668-7.462,16.668-16.667c0-7.617-5.131-13.896-12.109-15.885l-4.559-9.115v-10.417c0-1.208-0.969-2.552-2.082-2.995
		L62.5,973.195z M39.583,994.029h18.75c-4.168,2.083-10.417,12.5-10.417,16.667l-4.817-0.001c-1.054-4.085-3.458-7.524-6.901-9.766
		L39.583,994.029z M27.083,1004.445c5.753,0,10.417,4.664,10.417,10.417s-4.664,10.416-10.417,10.416s-10.417-4.663-10.417-10.416
		S21.331,1004.445,27.083,1004.445L27.083,1004.445z M72.916,1004.445c5.754,0,10.418,4.664,10.418,10.417
		s-4.664,10.416-10.418,10.416c-5.752,0-10.416-4.663-10.416-10.416S67.164,1004.445,72.916,1004.445L72.916,1004.445z"/>
</g>
</svg>
