<?xml version="1.0" encoding="utf-8"?>
<!-- Generator: Adobe Illustrator 16.0.0, SVG Export Plug-In . SVG Version: 6.00 Build 0)  -->
<!DOCTYPE svg PUBLIC "-//W3C//DTD SVG 1.0//EN" "http://www.w3.org/TR/2001/REC-SVG-20010904/DTD/svg10.dtd">
<svg version="1.0" id="Layer_1" xmlns="http://www.w3.org/2000/svg" xmlns:xlink="http://www.w3.org/1999/xlink" x="0px" y="0px"
	 width="62px" height="62px" viewBox="0 0 62 62" enable-background="new 0 0 62 62" xml:space="preserve">
<path fill="#CCCCCC" d="M39.201,27.649c0.219-1.556-0.085-2.909-0.981-3.806s-2.25-1.199-3.806-0.981
	c-0.946-1.254-2.117-1.997-3.386-1.997s-2.439,0.743-3.386,1.997c-1.556-0.218-2.909,0.085-3.805,0.982
	c-0.897,0.897-1.2,2.25-0.982,3.806c-1.254,0.946-1.997,2.117-1.997,3.385c0,1.269,0.743,2.44,1.997,3.385
	c-0.218,1.556,0.085,2.909,0.982,3.806c0.897,0.897,2.25,1.201,3.806,0.982c0.947,1.255,2.117,1.997,3.386,1.997
	s2.439-0.742,3.386-1.997c1.556,0.217,2.909-0.085,3.806-0.982c0.896-0.896,1.2-2.25,0.981-3.806
	c1.255-0.945,1.997-2.116,1.997-3.385C41.198,29.767,40.456,28.596,39.201,27.649z M36.554,27.564l-0.051,0.083L36.422,27.7
	c-0.052,0.034-5.198,3.438-6.22,7.598l-0.039,0.158l-0.133,0.093c-0.051,0.035-0.326,0.213-0.693,0.213
	c-0.238,0-0.467-0.077-0.66-0.225l-0.064-0.048L28.57,35.42c-0.016-0.024-1.578-2.548-2.941-3.327l-0.12-0.068l-0.058-0.126
	c-0.021-0.046-0.203-0.467,0.016-0.856l0.2-0.354l3.328,1.645c0.652-0.896,2.773-3.488,6.979-5.853l0.305-0.171l0.229,0.263
	C36.652,26.733,36.821,27.125,36.554,27.564z"/>
<g>
</g>
<g>
</g>
<g>
</g>
<g>
</g>
<g>
</g>
<g>
</g>
<g>
</g>
<g>
</g>
<g>
</g>
<g>
</g>
<g>
</g>
<g>
</g>
<g>
</g>
<g>
</g>
<g>
</g>
</svg>
