<?xml version="1.0" encoding="utf-8"?>
<!-- Generator: Adobe Illustrator 16.0.0, SVG Export Plug-In . SVG Version: 6.00 Build 0)  -->
<!DOCTYPE svg PUBLIC "-//W3C//DTD SVG 1.1//EN" "http://www.w3.org/Graphics/SVG/1.1/DTD/svg11.dtd">
<svg version="1.1"
	 id="parking_1_" xmlns:dc="http://purl.org/dc/elements/1.1/" xmlns:cc="http://creativecommons.org/ns#" xmlns:rdf="http://www.w3.org/1999/02/22-rdf-syntax-ns#" xmlns:svg="http://www.w3.org/2000/svg"
	 xmlns="http://www.w3.org/2000/svg" xmlns:xlink="http://www.w3.org/1999/xlink" x="0px" y="0px" width="100px" height="100px"
	 viewBox="0 0 100 100" enable-background="new 0 0 100 100" xml:space="preserve">
<path fill="#888888" d="M53.23,75.293v2.992c-3.826,0-25.66,0-29.484,0v-2.992c4.697-3.398,8.442-9.229,9.252-9.822v-0.906h0.339
	V35.496c1.05,2.07,2.963,3.465,5.151,3.465s4.103-1.395,5.151-3.465v29.068h0.339v0.906C44.788,66.064,48.533,71.895,53.23,75.293z
	 M81.12,64.311l-2.134,0.824l-2.228-5.76l2.134-0.824l-7.576-19.6l-2.367,0.916c-5.312-9.921-14.988-15.653-23.844-14.175
	c-0.502-3.804-3.27-6.717-6.617-6.717c-3.703,0-6.706,3.562-6.706,7.956s3.003,7.956,6.706,7.956c3.551,0,6.45-3.276,6.683-7.419
	c8.119-1.49,17.095,3.817,22.116,13.042L65.4,41.239l7.578,19.6l2.135-0.825l2.226,5.758l-2.135,0.826l0.815,2.11l5.916-2.287
	L81.12,64.311z"/>
</svg>
